<svg width="269" height="87" viewBox="0 0 269 87" fill="none" xmlns="http://www.w3.org/2000/svg">
<path d="M33.8696 0.0116699C37.5708 -0.0521122 42.56 0.106052 50.4731 1.49214C58.1055 2.82908 68.2852 5.26665 75.1987 6.95015C82.2986 8.67904 85.9792 9.61675 90.35 10.496C94.7235 11.3758 99.6501 12.1722 104.197 12.7851C103.788 12.73 103.964 12.7651 105.668 12.8017C107.016 12.8306 108.898 12.8563 111.259 12.8779C115.973 12.921 122.479 12.948 130.194 12.9628C145.618 12.9926 165.801 12.9733 185.989 12.9335C226.311 12.8542 266.738 12.6953 268.996 12.6953V87H25.2768C25.2737 87.0093 25.2719 87.0094 25.2719 87H5.27192C5.27192 80.7124 6.83198 80.6946 5.37934 70.872C4.84444 67.2552 4.05723 62.575 3.25337 57.8173C2.46149 53.1306 1.64997 48.3502 1.10981 44.7373C0.118479 38.1065 -0.397456 34.126 0.368601 29.9677C1.80607 22.1651 4.29455 13.2458 12.3403 7.373C16.6441 4.23158 23.0047 0.199028 33.8696 0.0116699Z" fill="#FF8C00"/>
</svg>
