<?xml version="1.0" encoding="UTF-8"?>
<svg id="_レイヤー_1" data-name="レイヤー_1" xmlns="http://www.w3.org/2000/svg" version="1.1" viewBox="0 0 1840 1162">
  <!-- Generator: Adobe Illustrator 30.3.0, SVG Export Plug-In . SVG Version: 2.1.3 Build 182)  -->
  <defs>
    <style>
      .st0 {
        fill: #fff;
      }

      .st1 {
        fill: #ffe500;
      }

      .st2 {
        fill: #ff8c00;
      }

      .st3 {
        fill: #62c6ff;
      }
    </style>
  </defs>
  <path class="st3" d="M1673.59,679.38c-1.1,2.59-2.52,5.05-3.35,6.79-5.92,6.82-17.08,14.92-25.55,12.97-1.7-.39-3.28-1.18-4.69-2.47-2.31-2.31-4.63-3.86-5.4-6.17-3.08-13.11-5.4-25.45-16.19-33.93-6.17-5.4-17.74.77-18.51,8.48-1.55,13.88,12.34,23.14,23.91,30.85,2.31,1.54,3.08,4.63,3.48,7.02.33,1.89.24,3.9-.4,6.09-.64,2.19-1.5,4.37-2.55,6.47-2.2,6.8-6.57,10.77-12.04,12.85-1.81.69-3.12,1.21-4.68,1.57-6.96.71-18.53-.83-16.99,9.97,1.55,8.48,9.26,13.88,9.68,22.17.18,2.24-.01,4.31-.42,6.61-.41,2.3-1.18,4.4-2.26,6.31-1.08,1.9-2.47,3.6-4.1,5.1-3.67,3.78-9.06,6.09-13.69,5.32-12.34-.77-28.54-4.63-37.02,6.17-3.86,3.86-.77,10.8,3.08,14.65,3.86,3.08,9.26,4.63,14.66,3.86,10.79-1.54,19.28-7.71,30.33-9.86,1.41.08,2.92.42,4.34,1.13,1.42.71,2.73,1.78,3.89,3.32,5.4,7.71,8.48,17.74,5.41,25.84-.75,1.97-1.78,4.09-3.06,6.42-4.56,8.23,3.5,17.62,12.45,14.71,2.59-.85,4.95-1.47,7.09-1.86,12.81-1.13,30.54,9.66,27.46,22.77-2.31,10.03-16.2,14.65-19.3,26.32-.37,1.87-.44,3.78-.07,5.69.35,1.91,1.12,3.84,2.41,5.77,5.78,8.35,17.46,9.75,25.21,4.18,1.55-1.11,2.94-2.51,4.1-4.18,5.4-9.26,2.31-20.82.77-30.85-.77-8.48,8.48-11.57,15.42-13.11,6.94-.77,15.43.77,19.21,7.36,1.38,1.72,2.64,3.5,3.93,5.17,3.86,5.01,8.1,9.06,15.42,7.52,16.97-3.86,10.03-21.6,11.57-33.93.77-5.4,8.49-.77,12.23.69,2.06.74,3.77,1.74,6.34,2.29,2.57.55,2.88.9,3.98,1.53,10.62,10.9,23.73,24.79,40.7,17.85,9.26-3.08,8.49-15.42,3.86-23.14-6.94-10.03-19.28-11.57-27-20.05-.77-1.54-.77-3.09-1.81-5.01-.57-1.94-1-3.91-1.28-5.9s-.4-3.99-.34-6.01c.37-1.45,1.05-2.79,2.06-4.03,3.03-3.73,8.97-6.59,18.05-9,9.5-2.53,10.3-15.69,1.28-19.6-2.58-1.12-4.83-2.24-6.73-3.37-1.89-1.13-3.47-2.45-4.67-3.45-4.81-9.58-4.54-22.96,2.82-30.73,1.47-1.55,1.9-1.71,3.18-1.98,12.9,3.47,27.56,5.01,37.58-5.01,7.71-6.17,6.17-17.74,0-25.45-3.85-3.86-8.48-6.94-13.88-6.94-13.11.77-22.37,10.8-27.76,21.59-.78,2.31-3.09,3.09-5.61,3.38-1.31.16-3.8-.18-5.35-.3-17.58-.76-20.66-20.04-27.61-32.38-.77-.77-2.31-1.54-3.08-.77-6.17,6.94-10.03,17.74-21.59,14.65-6.95-1.54-13.12-6.17-15.3-12.9-.62-1.7-1.37-3.72-1.62-5.65-.38-1.6-.75-3.33-1.12-5.18-.36-1.85-.72-3.82-1.08-5.91-1.76-10.21-15.75-11.85-19.79-2.31h-.01Z"/>
  <path class="st3" d="M1579.35,620.72c5.68,0,10.28-4.6,10.28-10.28s-4.6-10.28-10.28-10.28-10.28,4.6-10.28,10.28,4.6,10.28,10.28,10.28Z"/>
  <path class="st3" d="M1782.63,837.63c5.67,0,10.28-4.6,10.28-10.28s-4.61-10.28-10.28-10.28-10.28,4.6-10.28,10.28,4.6,10.28,10.28,10.28Z"/>
  <path class="st3" d="M1668.07,903.31c5.68,0,10.29-4.6,10.29-10.28s-4.61-10.28-10.29-10.28-10.28,4.6-10.28,10.28,4.61,10.28,10.28,10.28Z"/>
  <path class="st3" d="M1543.1,914.05c17.28,0,31.31-14.02,31.31-31.31s-14.02-31.31-31.31-31.31-31.31,14.02-31.31,31.31,14.01,31.31,31.31,31.31Z"/>
  <path class="st3" d="M1799.13,665.68c3.43,0,6.22-2.78,6.22-6.22s-2.79-6.22-6.22-6.22-6.22,2.78-6.22,6.22,2.79,6.22,6.22,6.22Z"/>
  <path class="st3" d="M1502.11,781.88c6.35,0,11.5-5.15,11.5-11.5s-5.15-11.5-11.5-11.5-11.5,5.15-11.5,11.5,5.15,11.5,11.5,11.5Z"/>
  <path class="st3" d="M1524.83,793.15c3.83,0,6.93-3.1,6.93-6.93s-3.1-6.93-6.93-6.93-6.94,3.1-6.94,6.93,3.11,6.93,6.94,6.93Z"/>
  <path class="st1" d="M422.01,884.36c-.57,2.76-1.47,5.45-1.95,7.31-4.47,7.85-13.82,17.99-22.51,17.73-1.74-.05-3.45-.51-5.08-1.5-2.72-1.81-5.29-2.87-6.51-4.98-5.6-12.25-10.3-23.89-22.55-30.09-7.11-4.08-17.24,4.24-16.48,11.95,1.22,13.92,16.65,20.26,29.5,25.55,2.57,1.06,3.93,3.93,4.8,6.2.69,1.79,1,3.78.8,6.05-.2,2.27-.61,4.58-1.23,6.85-.82,7.09-4.33,11.84-9.28,14.96-1.64,1.04-2.82,1.8-4.28,2.46-6.68,2.06-18.33,2.82-14.69,13.1,3.18,8.02,11.8,11.8,13.84,19.84.62,2.17.84,4.23.89,6.57.05,2.33-.29,4.55-.98,6.63-.68,2.08-1.71,4.01-3.02,5.8-2.85,4.43-7.69,7.76-12.38,7.91-12.25,1.67-28.89,1.07-35.08,13.32-3.02,4.54,1.37,10.74,5.9,13.76,4.39,2.27,9.98,2.72,15.12.91,10.28-3.64,17.39-11.36,27.8-15.63,1.4-.19,2.95-.16,4.48.26,1.53.42,3.03,1.21,4.47,2.49,6.81,6.5,11.8,15.73,10.39,24.27-.35,2.08-.94,4.37-1.74,6.9-2.85,8.96,6.9,16.59,15.1,11.97,2.37-1.34,4.57-2.42,6.59-3.22,12.33-3.62,31.84,3.48,31.4,16.94-.3,10.28-13,17.55-13.75,29.6,0,1.91.31,3.79,1.04,5.59.72,1.81,1.86,3.55,3.5,5.19,7.31,7.05,19.04,6.12,25.54-.86,1.3-1.39,2.39-3.03,3.19-4.9,3.47-10.14-1.82-20.87-5.31-30.4-2.42-8.17,6.04-13.01,12.55-15.89,6.65-2.12,15.28-2.27,20.28,3.44,1.69,1.42,3.28,2.91,4.87,4.3,4.77,4.16,9.72,7.3,16.6,4.34,15.88-7.11,5.59-23.14,4.67-35.54-.3-5.45,8.17-2.43,12.12-1.72,2.17.32,4.04.96,6.67.99,2.63.04,3,.32,4.2.72,12.55,8.61,28.14,19.64,43.41,9.5,8.47-4.84,5.29-16.79-.77-23.44-8.78-8.47-21.18-7.56-30.41-14.36-1.06-1.36-1.36-2.87-2.76-4.55-.94-1.79-1.75-3.64-2.41-5.53-.66-1.9-1.18-3.84-1.52-5.83.08-1.5.49-2.94,1.23-4.36,2.24-4.25,7.5-8.22,15.93-12.37,8.82-4.35,7.02-17.41-2.6-19.47-2.75-.59-5.17-1.25-7.26-1.99-2.08-.74-3.89-1.72-5.26-2.46-6.6-8.44-8.97-21.62-3.27-30.68,1.13-1.81,1.52-2.05,2.73-2.57,13.33.87,28-.5,35.86-12.3,6.35-7.56,2.56-18.6-5-24.95-4.54-3.02-9.68-5.14-14.98-4.08-12.7,3.33-19.81,14.98-22.98,26.63-.3,2.42-2.42,3.63-4.83,4.41-1.25.42-3.76.58-5.31.76-17.38,2.71-24.2-15.59-33.43-26.33-.91-.6-2.57-1.06-3.18-.15-4.68,8.02-6.34,19.37-18.29,18.61-7.11-.14-14.07-3.47-17.53-9.63-.94-1.55-2.08-3.38-2.7-5.22-.69-1.5-1.39-3.12-2.11-4.85-.72-1.74-1.46-3.6-2.23-5.58-3.73-9.67-17.77-8.52-19.86,1.63h0Z"/>
  <path class="st1" d="M318.08,845.36c5.57-1.12,9.17-6.53,8.06-12.1-1.11-5.57-6.53-9.18-12.1-8.06-5.57,1.12-9.17,6.53-8.06,12.1,1.12,5.57,6.53,9.18,12.1,8.06Z"/>
  <path class="st1" d="M560.02,1018.09c5.57-1.11,9.18-6.53,8.06-12.1-1.12-5.56-6.53-9.17-12.1-8.06-5.57,1.12-9.18,6.54-8.06,12.1,1.12,5.57,6.53,9.18,12.1,8.06Z"/>
  <path class="st1" d="M460.61,1105c5.57-1.11,9.18-6.53,8.06-12.1-1.12-5.57-6.53-9.17-12.1-8.06-5.57,1.12-9.17,6.54-8.06,12.1,1.12,5.57,6.53,9.18,12.1,8.06Z"/>
  <path class="st1" d="M583.61,1094.36c15.51-3.11,25.56-18.2,22.45-33.72-3.11-15.51-18.2-25.56-33.71-22.45-15.51,3.11-25.56,18.2-22.45,33.72,3.11,15.51,18.2,25.56,33.71,22.45Z"/>
  <path class="st1" d="M542.41,846.26c3.37-.67,5.55-3.95,4.87-7.32s-3.95-5.55-7.32-4.87c-3.37.67-5.55,3.95-4.87,7.32.67,3.37,3.95,5.55,7.32,4.87Z"/>
  <path class="st1" d="M274.02,1018.56c6.23-1.25,10.26-7.31,9.01-13.54-1.25-6.23-7.31-10.26-13.54-9.01-6.23,1.24-10.26,7.3-9.01,13.53,1.25,6.23,7.31,10.26,13.54,9.02Z"/>
  <path class="st1" d="M298.51,1025.14c3.75-.75,6.19-4.41,5.43-8.16-.75-3.76-4.41-6.19-8.16-5.44-3.76.76-6.19,4.41-5.44,8.16.75,3.76,4.41,6.19,8.16,5.44Z"/>
  <g>
    <path class="st2" d="M1618.65,100.73c-1.1,2.59-2.52,5.05-3.35,6.79-5.92,6.82-17.08,14.92-25.55,12.96-1.7-.39-3.28-1.18-4.69-2.47-2.31-2.31-4.63-3.86-5.4-6.17-3.08-13.11-5.4-25.45-16.19-33.93-6.17-5.4-17.74.77-18.51,8.48-1.55,13.88,12.34,23.14,23.91,30.85,2.31,1.54,3.08,4.63,3.48,7.02.33,1.89.24,3.9-.4,6.09-.64,2.19-1.5,4.37-2.55,6.47-2.2,6.79-6.57,10.77-12.04,12.85-1.81.69-3.12,1.21-4.68,1.57-6.96.71-18.53-.83-16.99,9.96,1.55,8.48,9.26,13.88,9.68,22.17.18,2.24-.01,4.31-.42,6.61-.41,2.3-1.18,4.4-2.26,6.31-1.08,1.9-2.47,3.6-4.1,5.1-3.67,3.78-9.06,6.09-13.69,5.32-12.34-.77-28.54-4.63-37.02,6.17-3.86,3.86-.77,10.8,3.08,14.65,3.86,3.09,9.26,4.63,14.66,3.86,10.79-1.54,19.28-7.71,30.33-9.86,1.41.08,2.92.42,4.34,1.13,1.42.71,2.73,1.78,3.89,3.32,5.4,7.71,8.48,17.74,5.41,25.84-.75,1.97-1.78,4.1-3.06,6.42-4.56,8.23,3.5,17.62,12.45,14.71,2.59-.85,4.95-1.47,7.09-1.86,12.81-1.13,30.54,9.66,27.46,22.77-2.31,10.03-16.2,14.65-19.3,26.32-.37,1.87-.44,3.78-.07,5.69.35,1.91,1.12,3.84,2.41,5.77,5.78,8.35,17.46,9.75,25.21,4.18,1.55-1.11,2.94-2.51,4.1-4.18,5.4-9.26,2.31-20.82.77-30.85-.77-8.48,8.48-11.57,15.42-13.11,6.94-.77,15.43.77,19.21,7.36,1.38,1.72,2.64,3.5,3.93,5.18,3.86,5.01,8.1,9.06,15.42,7.52,16.97-3.86,10.03-21.6,11.57-33.93.77-5.4,8.49-.77,12.23.69,2.06.74,3.77,1.74,6.34,2.29,2.57.56,2.88.9,3.98,1.53,10.62,10.9,23.73,24.79,40.7,17.85,9.26-3.09,8.49-15.42,3.86-23.14-6.94-10.03-19.28-11.57-27-20.05-.77-1.54-.77-3.09-1.81-5.01-.57-1.94-1-3.91-1.28-5.9-.28-1.99-.4-4-.34-6.02.37-1.45,1.05-2.79,2.06-4.03,3.03-3.73,8.97-6.59,18.05-9,9.5-2.53,10.3-15.69,1.28-19.6-2.58-1.12-4.83-2.24-6.73-3.37-1.89-1.13-3.47-2.45-4.67-3.45-4.81-9.58-4.54-22.96,2.82-30.73,1.47-1.55,1.9-1.71,3.18-1.98,12.9,3.47,27.56,5.01,37.58-5.01,7.71-6.17,6.17-17.74,0-25.45-3.85-3.86-8.48-6.94-13.88-6.94-13.11.77-22.37,10.8-27.76,21.6-.78,2.31-3.09,3.08-5.61,3.38-1.31.16-3.8-.18-5.35-.3-17.58-.76-20.66-20.04-27.61-32.38-.77-.77-2.31-1.54-3.08-.77-6.17,6.94-10.03,17.74-21.59,14.65-6.95-1.54-13.12-6.17-15.3-12.9-.62-1.7-1.37-3.72-1.62-5.65-.38-1.6-.75-3.33-1.12-5.18-.36-1.85-.72-3.82-1.08-5.91-1.76-10.21-15.75-11.85-19.79-2.31h-.01Z"/>
    <path class="st2" d="M1524.41,42.07c5.68,0,10.28-4.6,10.28-10.28s-4.6-10.28-10.28-10.28-10.28,4.6-10.28,10.28,4.6,10.28,10.28,10.28Z"/>
    <path class="st2" d="M1727.69,258.98c5.67,0,10.28-4.6,10.28-10.28s-4.61-10.28-10.28-10.28-10.28,4.6-10.28,10.28,4.6,10.28,10.28,10.28Z"/>
    <path class="st2" d="M1613.13,324.66c5.68,0,10.29-4.6,10.29-10.28s-4.61-10.28-10.29-10.28-10.28,4.6-10.28,10.28,4.61,10.28,10.28,10.28Z"/>
    <path class="st2" d="M1767.68,335.01c11.09,0,20.09-8.99,20.09-20.09s-9-20.09-20.09-20.09-20.09,8.99-20.09,20.09,8.99,20.09,20.09,20.09Z"/>
    <path class="st2" d="M1744.19,87.03c3.43,0,6.22-2.78,6.22-6.22s-2.79-6.22-6.22-6.22-6.22,2.78-6.22,6.22,2.79,6.22,6.22,6.22Z"/>
    <path class="st2" d="M1447.17,203.23c6.35,0,11.5-5.15,11.5-11.5s-5.15-11.5-11.5-11.5-11.5,5.15-11.5,11.5,5.15,11.5,11.5,11.5Z"/>
    <path class="st2" d="M1469.89,214.5c3.83,0,6.93-3.1,6.93-6.93s-3.1-6.93-6.93-6.93-6.94,3.1-6.94,6.93,3.11,6.93,6.94,6.93Z"/>
  </g>
  <path class="st0" d="M162.19,23.58c5.01,3.91,12.24,3.03,16.16-1.98,3.91-5.01,3.03-12.24-1.98-16.16-5.01-3.91-12.24-3.03-16.16,1.98-3.91,5.01-3.03,12.24,1.98,16.16Z"/>
  <path class="st0" d="M325.08,214.77c3.03,2.37,7.4,1.83,9.77-1.2,2.37-3.03,1.83-7.4-1.2-9.77-3.03-2.37-7.4-1.83-9.77,1.2-2.37,3.03-1.83,7.4,1.2,9.77Z"/>
  <g>
    <path class="st0" d="M226.89,140.3c-2.75,1.53-5.7,2.72-7.63,3.68-9.92,1.93-25.36,1.39-31.48-6.18-1.23-1.52-2.08-3.3-2.43-5.41-.45-3.64-1.42-6.59-.51-9.16,6.32-13.69,12.78-26.17,9.11-41.1-1.72-9.02-16.18-11.55-22.18-5.28-10.93,11.18-5.06,28.92-.18,43.7.98,2.96-.47,6.21-1.76,8.6-1.02,1.89-2.48,3.61-4.55,5.1-2.07,1.49-4.33,2.83-6.71,3.95-6.62,4.48-13.22,4.97-19.48,3.04-2.08-.64-3.59-1.08-5.21-1.85-6.63-4.17-15.77-13.51-21.85-2.92-4.49,8.55-1.41,18.63-6.75,26.23-1.38,2.11-2.98,3.8-4.92,5.54-1.95,1.75-4.08,3.07-6.34,4.01-2.27.94-4.66,1.48-7.13,1.67-5.84.81-12.2-.87-15.74-4.74-10.36-9.19-21.98-23.75-36.91-20.08-6.06.74-8.12,8.99-7.38,15.05,1.28,5.38,4.97,10.46,10.27,13.5,10.59,6.08,22.33,6.49,33.55,12.22,1.19,1.05,2.29,2.39,3.05,3.99.76,1.6,1.18,3.45,1.14,5.61-.55,10.53-4.74,21.5-13.04,26.53-2.02,1.21-4.4,2.38-7.12,3.55-9.69,4.12-9.06,17.96.84,21.56,2.87,1.04,5.38,2.11,7.54,3.25,12.08,7.82,20.28,29.58,8.52,39.02-8.95,7.25-24.39,1.76-35.17,9.92-1.63,1.39-2.99,3.03-3.99,4.97-1.01,1.93-1.65,4.17-1.85,6.75-.65,11.36,8.68,20.64,19.36,21.07,2.13.09,4.32-.18,6.49-.86,11.14-4.44,16.4-16.78,21.95-26.68,5.17-8.02,15.46-4.36,22.65-.93,6.65,4.11,13.08,11.31,11.87,19.73.03,2.47-.08,4.91-.1,7.28-.05,7.08.9,13.58,8.42,17.27,17.63,8.3,23.73-12.14,33.6-21.96,4.4-4.23,8.02,5.17,10.3,9.04,1.31,2.08,2.13,4.13,4.02,6.4,1.88,2.26,1.92,2.78,2.46,4.09,1.85,16.94,3.85,38.23,23.6,43.8,10.29,3.66,18.12-7.76,19.35-17.75.79-13.63-9.04-23.5-9.99-36.3.38-1.89,1.45-3.25,1.85-5.67.84-2.11,1.81-4.14,2.94-6.09,1.13-1.95,2.4-3.8,3.84-5.55,1.33-1.02,2.85-1.73,4.6-2.13,5.24-1.2,12.45.37,22.12,4.5,10.13,4.32,19.91-6.74,14.65-16.41-1.51-2.77-2.72-5.3-3.61-7.61-.89-2.31-1.38-4.56-1.75-6.26,2.36-11.77,11.82-23.39,23.67-25.16,2.36-.36,2.85-.2,4.17.44,8.99,11.96,20.85,23.42,36.61,21.49,11.06-.13,17.67-11.4,17.55-22.45-.74-6.06-2.7-11.97-7.46-15.69-12.1-8.36-27.18-5.89-39.38-.09-2.28,1.51-4.85.6-7.28-.89-1.27-.76-3.23-2.77-4.51-3.95-14.98-12.79-4.41-31.93-2.03-47.6-.15-1.21-.98-2.96-2.19-2.81-10.23,1.87-21.07,8.74-29.15-1.96-5.06-6.15-7.31-14.48-4.6-21.92.63-1.93,1.35-4.23,2.47-6.1.77-1.68,1.64-3.45,2.58-5.34.96-1.88,1.99-3.87,3.11-5.96,5.49-10.22-5.73-21.31-15.87-15.68h0Z"/>
    <path class="st0" d="M213.98,355.08c5.01,3.91,12.24,3.03,16.16-1.98s3.03-12.24-1.98-16.16-12.24-3.03-16.16,1.98c-3.91,5.01-3.03,12.24,1.98,16.16Z"/>
    <path class="st0" d="M67.64,334.05c5.01,3.91,12.24,3.03,16.16-1.98s3.03-12.24-1.98-16.16-12.24-3.03-16.16,1.98c-3.91,5.01-3.03,12.24,1.98,16.16Z"/>
    <path class="st0" d="M190.13,385.6c9.79,7.65,23.92,5.92,31.57-3.87,7.65-9.79,5.92-23.92-3.87-31.57-9.79-7.65-23.92-5.91-31.57,3.87-7.65,9.79-5.92,23.92,3.87,31.57Z"/>
    <path class="st0" d="M4.95,112.51c5.6,4.38,13.69,3.39,18.07-2.22,4.38-5.6,3.39-13.69-2.22-18.07-5.6-4.38-13.69-3.39-18.07,2.22-4.38,5.6-3.39,13.69,2.22,18.07Z"/>
    <path class="st0" d="M17.22,138.11c3.38,2.64,8.26,2.04,10.9-1.34,2.64-3.38,2.04-8.26-1.34-10.9-3.38-2.64-8.26-2.04-10.9,1.34-2.64,3.38-2.04,8.26,1.34,10.9Z"/>
  </g>
  <path class="st3" d="M815.14,310.71c-2.18,5.15-4.99,10.04-6.65,13.48-11.77,13.54-33.94,29.65-50.76,25.76-3.37-.78-6.51-2.34-9.32-4.9-4.6-4.6-9.19-7.66-10.73-12.26-6.13-26.05-10.72-50.56-32.18-67.42-12.26-10.73-35.24,1.53-36.77,16.85-3.07,27.58,24.52,45.97,47.5,61.29,4.6,3.06,6.13,9.19,6.93,13.94.64,3.75.47,7.75-.8,12.1-1.27,4.35-2.97,8.69-5.07,12.86-4.37,13.5-13.05,21.39-23.92,25.53-3.6,1.38-6.21,2.41-9.3,3.11-13.82,1.41-36.8-1.65-33.74,19.8,3.06,16.85,18.39,27.58,19.21,44.05.37,4.46-.02,8.57-.83,13.13-.81,4.57-2.34,8.75-4.49,12.53-2.14,3.79-4.9,7.15-8.15,10.13-7.28,7.51-18,12.1-27.2,10.57-24.52-1.53-56.69-9.19-73.55,12.26-7.66,7.66-1.53,21.45,6.13,29.11,7.66,6.13,18.39,9.19,29.11,7.66,21.45-3.06,38.3-15.32,60.26-19.58,2.8.17,5.81.84,8.63,2.25,2.82,1.41,5.42,3.54,7.72,6.6,10.72,15.32,16.85,35.24,10.76,51.33-1.5,3.91-3.54,8.14-6.08,12.75-9.05,16.35,6.96,35.01,24.73,29.22,5.15-1.69,9.84-2.93,14.1-3.69,25.43-2.25,60.68,19.2,54.55,45.25-4.6,19.92-32.18,29.11-38.34,52.29-.75,3.72-.87,7.51-.15,11.31.71,3.8,2.24,7.63,4.8,11.46,11.49,16.59,34.69,19.37,50.09,8.3,3.08-2.21,5.84-4.98,8.14-8.3,10.73-18.39,4.6-41.37,1.53-61.29-1.53-16.85,16.85-22.98,30.64-26.05,13.79-1.53,30.64,1.53,38.15,14.62,2.74,3.42,5.26,6.96,7.81,10.28,7.66,9.96,16.09,18,30.64,14.94,33.71-7.66,19.92-42.9,22.98-67.42,1.53-10.72,16.85-1.53,24.29,1.38,4.1,1.47,7.49,3.45,12.61,4.55,5.1,1.1,5.71,1.79,7.9,3.03,21.1,21.66,47.15,49.24,80.86,35.45,18.38-6.13,16.85-30.64,7.66-45.97-13.79-19.92-38.31-22.98-53.63-39.84-1.53-3.06-1.53-6.13-3.6-9.94-1.13-3.86-1.99-7.77-2.54-11.72-.56-3.95-.8-7.94-.69-11.95.73-2.88,2.1-5.53,4.1-8,6.02-7.4,17.82-13.08,35.86-17.88,18.87-5.03,20.47-31.18,2.54-38.95-5.13-2.22-9.59-4.44-13.36-6.7-3.77-2.25-6.91-4.87-9.29-6.85-9.56-19.03-9.02-45.61,5.61-61.04,2.91-3.08,3.77-3.4,6.31-3.94,25.64,6.89,54.75,9.96,74.67-9.96,15.32-12.26,12.25-35.24,0-50.56-7.66-7.66-16.86-13.79-27.58-13.79-26.05,1.53-44.44,21.45-55.16,42.9-1.53,4.6-6.13,6.13-11.14,6.71-2.6.32-7.54-.35-10.63-.6-34.92-1.52-41.05-39.82-54.84-64.34-1.53-1.53-4.6-3.06-6.13-1.53-12.26,13.79-19.92,35.24-42.9,29.11-13.79-3.07-26.05-12.26-30.38-25.62-1.23-3.39-2.73-7.39-3.22-11.23-.75-3.19-1.49-6.62-2.22-10.28-.72-3.68-1.44-7.58-2.16-11.74-3.49-20.29-31.29-23.54-39.32-4.58h-.01Z"/>
  <path class="st3" d="M627.92,194.17c11.28,0,20.42-9.14,20.42-20.42s-9.14-20.42-20.42-20.42-20.42,9.14-20.42,20.42,9.14,20.42,20.42,20.42Z"/>
  <path class="st3" d="M1031.76,625.1c11.28,0,20.42-9.14,20.42-20.42s-9.14-20.42-20.42-20.42-20.43,9.14-20.43,20.42,9.15,20.42,20.43,20.42Z"/>
  <path class="st3" d="M804.18,755.58c11.28,0,20.42-9.14,20.42-20.42s-9.14-20.42-20.42-20.42-20.42,9.14-20.42,20.42,9.14,20.42,20.42,20.42Z"/>
  <path class="st3" d="M1031.76,693.82c22.04,0,39.91-17.87,39.91-39.91s-17.87-39.91-39.91-39.91-39.92,17.87-39.92,39.91,17.87,39.91,39.92,39.91Z"/>
  <path class="st3" d="M1064.55,283.5c6.82,0,12.34-5.53,12.34-12.35s-5.52-12.35-12.34-12.35-12.35,5.53-12.35,12.35,5.52,12.35,12.35,12.35Z"/>
  <path class="st3" d="M474.47,514.34c12.62,0,22.84-10.23,22.84-22.85s-10.23-22.85-22.84-22.85-22.85,10.23-22.85,22.85,10.23,22.85,22.85,22.85Z"/>
  <path class="st3" d="M519.6,536.72c7.61,0,13.77-6.17,13.77-13.77s-6.17-13.77-13.77-13.77-13.77,6.17-13.77,13.77,6.17,13.77,13.77,13.77Z"/>
  <path class="st1" d="M873.27,452.35c.29,5.58-.11,11.21-.09,15.03-4.67,17.32-17.58,41.49-34.42,45.34-3.37.77-6.88.74-10.52-.34-6.14-2.13-11.62-2.88-15-6.34-16.89-20.76-31.73-40.8-58.39-46.6-15.71-4.29-31.03,16.77-25.72,31.22,9.29,26.15,42.13,30.64,69.49,34.39,5.47.75,9.53,5.59,12.32,9.52,2.22,3.1,3.81,6.77,4.57,11.24.76,4.47,1.12,9.11,1.05,13.78,1.97,14.05-2.4,24.94-10.37,33.41-2.64,2.81-4.53,4.87-7.01,6.86-11.82,7.3-33.83,14.58-21.71,32.54,10.12,13.82,28.59,16.78,36.52,31.24,2.28,3.85,3.73,7.71,4.99,12.17,1.26,4.46,1.71,8.89,1.43,13.24-.28,4.34-1.29,8.58-2.91,12.67-3.27,9.93-10.91,18.75-19.85,21.39-22.72,9.33-55.01,16.49-60.81,43.15-3.55,10.24,7.99,19.97,18.23,23.51,9.57,2.17,20.55.24,29.53-5.82,17.96-12.12,27.77-30.51,45.66-43.93,2.6-1.07,5.59-1.78,8.74-1.74,3.15.04,6.43.82,9.83,2.57,16.34,9.1,30.55,24.34,32.09,41.48.36,4.17.37,8.86.09,14.12-1.01,18.66,21.55,28.46,35.01,15.48,3.9-3.76,7.57-6.93,11.07-9.48,21.9-13.13,62.97-9.23,68.83,16.88,4.56,19.93-16.23,40.24-11.65,63.79.95,3.68,2.49,7.13,4.8,10.24,2.29,3.11,5.34,5.89,9.32,8.22,17.58,9.91,39.66,2.27,48.68-14.4,1.81-3.33,3.08-7.03,3.7-11.02,1.61-21.22-13.94-39.22-25.39-55.8-8.74-14.49,5.12-28.04,16.19-36.81,11.74-7.4,28.24-12.01,40.71-3.51,3.95,1.88,7.76,3.96,11.51,5.84,11.25,5.61,22.34,9.17,34.1.06,26.97-21.61-.82-47.29-8.77-70.68-3.31-10.32,14.49-8.74,22.45-9.36,4.33-.47,8.24-.17,13.33-1.41,5.07-1.24,5.92-.88,8.44-.72,28.44,10.28,63.91,23.71,88.22-3.41,13.86-13.54,1.78-34.93-13.19-44.7-21.1-11.9-44.49-3.95-65.64-12.42-2.71-2.09-4.05-4.84-7.58-7.37-2.7-2.98-5.18-6.12-7.4-9.43-2.23-3.32-4.19-6.79-5.84-10.45-.6-2.91-.53-5.89.2-8.99,2.18-9.29,10.31-19.55,24.44-31.74,14.79-12.77,4.8-36.99-14.72-36.15-5.59.24-10.57.19-14.94-.19-4.38-.38-8.35-1.36-11.35-2.11-16.91-12.94-28.04-37.09-21.61-57.36,1.27-4.04,1.9-4.71,3.96-6.3,26.07-4.99,53.6-14.95,62.82-41.57,8.43-17.72-4.37-37.06-22.09-45.49-10.23-3.55-21.18-5.05-30.83-.36-22.76,12.75-30.6,38.7-30.88,62.68.63,4.8-2.84,8.19-7.09,10.9-2.21,1.43-6.94,2.97-9.83,4.11-32.07,13.89-54.32-17.9-77.43-33.93-2.05-.71-5.47-.75-6.18,1.3-5,17.76-2.53,40.4-25.88,44.92-13.74,3.27-28.79.35-38.52-9.78-2.58-2.51-5.68-5.45-7.8-8.7-2.07-2.54-4.23-5.31-6.49-8.28-2.25-2.99-4.61-6.19-7.07-9.61-12-16.72-38.42-7.51-37.37,13.05h-.01Z"/>
  <path class="st1" d="M717.06,468.15c10.15-4.93,14.38-17.15,9.45-27.29-4.93-10.15-17.15-14.38-27.29-9.45-10.15,4.93-14.38,17.14-9.45,27.29,4.93,10.15,17.15,14.38,27.29,9.45Z"/>
  <path class="st1" d="M1268.56,679.45c10.15-4.93,14.38-17.15,9.45-27.29-4.92-10.15-17.14-14.38-27.29-9.45-10.15,4.93-14.38,17.15-9.45,27.29,4.92,10.15,17.14,14.38,27.29,9.45Z"/>
  <path class="st1" d="M1120.8,896.21c10.15-4.93,14.38-17.15,9.45-27.29-4.92-10.15-17.14-14.38-27.29-9.45-10.15,4.93-14.38,17.15-9.45,27.29,4.92,10.15,17.14,14.38,27.29,9.45Z"/>
  <path class="st1" d="M1298.57,741.27c19.83-9.63,28.1-33.51,18.47-53.34-9.62-19.83-33.5-28.1-53.33-18.48-19.83,9.63-28.1,33.51-18.48,53.34,9.63,19.83,33.51,28.1,53.34,18.48Z"/>
  <path class="st1" d="M1148.87,357.83c6.14-2.98,8.7-10.37,5.72-16.5-2.98-6.14-10.37-8.7-16.51-5.72-6.13,2.98-8.69,10.37-5.71,16.5,2.98,6.14,10.37,8.7,16.5,5.72Z"/>
  <path class="st1" d="M718.84,823.18c11.35-5.51,16.08-19.18,10.57-30.53-5.51-11.35-19.18-16.08-30.53-10.57-11.35,5.51-16.08,19.18-10.57,30.53,5.51,11.35,19.18,16.09,30.53,10.58Z"/>
  <path class="st1" d="M769.21,823.61c6.84-3.32,9.7-11.56,6.38-18.41-3.32-6.84-11.56-9.7-18.41-6.38-6.84,3.32-9.7,11.56-6.38,18.41,3.32,6.84,11.56,9.7,18.41,6.38Z"/>
  <path class="st0" d="M869.95,411.72c-2.18,5.15-4.99,10.04-6.65,13.48-11.77,13.55-33.94,29.65-50.76,25.76-3.37-.78-6.51-2.34-9.32-4.9-4.6-4.6-9.19-7.66-10.73-12.26-6.13-26.05-10.73-50.56-32.18-67.42-12.26-10.73-35.24,1.53-36.77,16.85-3.06,27.58,24.52,45.96,47.5,61.29,4.6,3.06,6.13,9.19,6.93,13.94.64,3.75.47,7.75-.8,12.1-1.27,4.35-2.97,8.69-5.07,12.85-4.37,13.5-13.05,21.39-23.92,25.53-3.6,1.38-6.21,2.4-9.3,3.11-13.82,1.41-36.8-1.65-33.74,19.8,3.06,16.85,18.39,27.58,19.21,44.05.37,4.46-.02,8.57-.83,13.13-.81,4.57-2.34,8.75-4.49,12.53-2.15,3.79-4.9,7.16-8.15,10.13-7.28,7.51-18,12.1-27.2,10.57-24.52-1.53-56.69-9.19-73.54,12.26-7.66,7.66-1.53,21.45,6.13,29.11,7.66,6.13,18.39,9.19,29.11,7.66,21.45-3.06,38.3-15.32,60.26-19.58,2.8.17,5.81.84,8.63,2.25,2.82,1.41,5.42,3.54,7.72,6.6,10.72,15.32,16.85,35.24,10.76,51.33-1.5,3.91-3.54,8.14-6.08,12.75-9.05,16.35,6.96,35.01,24.73,29.22,5.15-1.68,9.84-2.93,14.1-3.69,25.43-2.25,60.67,19.2,54.54,45.25-4.6,19.92-32.18,29.11-38.34,52.29-.75,3.72-.87,7.51-.15,11.31.71,3.8,2.24,7.63,4.8,11.46,11.49,16.59,34.69,19.37,50.09,8.3,3.08-2.21,5.84-4.98,8.14-8.3,10.72-18.39,4.6-41.37,1.53-61.29-1.53-16.85,16.85-22.98,30.64-26.05,13.79-1.53,30.64,1.53,38.15,14.62,2.74,3.42,5.25,6.96,7.81,10.28,7.66,9.96,16.09,18,30.65,14.94,33.7-7.66,19.91-42.9,22.98-67.42,1.53-10.73,16.85-1.53,24.28,1.38,4.11,1.47,7.5,3.45,12.61,4.55,5.11,1.1,5.72,1.79,7.91,3.03,21.1,21.67,47.14,49.24,80.85,35.46,18.39-6.13,16.86-30.64,7.66-45.97-13.79-19.92-38.3-22.98-53.62-39.84-1.54-3.06-1.54-6.13-3.6-9.94-1.14-3.86-2-7.77-2.55-11.72-.55-3.95-.79-7.94-.69-11.95.74-2.88,2.1-5.53,4.11-8,6.02-7.4,17.82-13.09,35.85-17.88,18.88-5.03,20.47-31.18,2.55-38.95-5.14-2.22-9.6-4.44-13.36-6.7-3.77-2.25-6.91-4.87-9.29-6.85-9.56-19.03-9.02-45.61,5.61-61.04,2.91-3.08,3.77-3.4,6.31-3.94,25.63,6.89,54.75,9.96,74.66-9.96,15.33-12.26,12.26-35.24,0-50.56-7.66-7.66-16.85-13.79-27.57-13.79-26.05,1.53-44.44,21.45-55.16,42.9-1.54,4.6-6.13,6.13-11.14,6.71-2.61.32-7.54-.35-10.64-.6-34.91-1.52-41.04-39.82-54.83-64.34-1.54-1.53-4.6-3.06-6.13-1.53-12.26,13.79-19.92,35.24-42.9,29.11-13.79-3.07-26.05-12.26-30.39-25.62-1.23-3.39-2.73-7.39-3.22-11.23-.75-3.19-1.49-6.62-2.22-10.28-.72-3.68-1.44-7.58-2.16-11.74-3.49-20.29-31.29-23.53-39.32-4.58h-.02Z"/>
  <path class="st0" d="M745.92,339.17c11.28,0,20.42-9.15,20.42-20.42s-9.14-20.42-20.42-20.42-20.42,9.14-20.42,20.42,9.14,20.42,20.42,20.42Z"/>
  <path class="st0" d="M1149.76,770.1c11.28,0,20.42-9.14,20.42-20.42s-9.14-20.42-20.42-20.42-20.43,9.14-20.43,20.42,9.15,20.42,20.43,20.42Z"/>
  <path class="st0" d="M922.18,900.58c11.28,0,20.42-9.14,20.42-20.42s-9.14-20.42-20.42-20.42-20.42,9.14-20.42,20.42,9.14,20.42,20.42,20.42Z"/>
  <path class="st0" d="M1149.76,838.82c22.04,0,39.91-17.87,39.91-39.91s-17.87-39.91-39.91-39.91-39.92,17.87-39.92,39.91,17.87,39.91,39.92,39.91Z"/>
  <path class="st0" d="M1182.55,428.5c6.82,0,12.34-5.53,12.34-12.35s-5.52-12.35-12.34-12.35-12.35,5.53-12.35,12.35,5.52,12.35,12.35,12.35Z"/>
  <path class="st0" d="M592.47,659.34c12.62,0,22.84-10.23,22.84-22.84s-10.23-22.85-22.84-22.85-22.85,10.23-22.85,22.85,10.23,22.84,22.85,22.84Z"/>
  <path class="st0" d="M637.6,681.72c7.61,0,13.77-6.17,13.77-13.78s-6.17-13.77-13.77-13.77-13.77,6.17-13.77,13.77,6.17,13.78,13.77,13.78Z"/>
</svg>