<svg width="2594" height="1174" viewBox="0 0 2594 1174" fill="none" xmlns="http://www.w3.org/2000/svg">
<path d="M2444.97 635.924C2443.88 638.515 2442.46 640.975 2441.63 642.71C2435.7 649.528 2424.54 657.634 2416.08 655.675C2414.38 655.282 2412.8 654.495 2411.39 653.207C2409.07 650.893 2406.76 649.351 2405.99 647.037C2402.9 633.926 2400.59 621.586 2389.79 613.103C2383.62 607.704 2372.05 613.874 2371.28 621.586C2369.74 635.469 2383.62 644.723 2395.19 652.436C2397.5 653.978 2398.28 657.063 2398.68 659.454C2399 661.343 2398.92 663.356 2398.28 665.547C2397.64 667.737 2396.78 669.92 2395.72 672.017C2393.53 678.812 2389.15 682.784 2383.68 684.866C2381.87 685.56 2380.56 686.077 2379 686.432C2372.05 687.141 2360.48 685.599 2362.02 696.396C2363.56 704.879 2371.28 710.278 2371.69 718.569C2371.88 720.813 2371.68 722.88 2371.28 725.178C2370.87 727.477 2370.1 729.582 2369.02 731.487C2367.94 733.392 2366.55 735.089 2364.91 736.585C2361.25 740.364 2355.85 742.678 2351.22 741.906C2338.88 741.135 2322.69 737.279 2314.2 748.076C2310.35 751.932 2313.43 758.873 2317.29 762.73C2321.15 765.815 2326.54 767.357 2331.94 766.586C2342.74 765.043 2351.22 758.873 2362.28 756.729C2363.69 756.814 2365.2 757.154 2366.62 757.863C2368.04 758.573 2369.35 759.645 2370.5 761.187C2375.9 768.899 2378.99 778.925 2375.92 787.023C2375.16 788.99 2374.14 791.119 2372.86 793.44C2368.3 801.669 2376.36 811.063 2385.3 808.147C2387.9 807.299 2390.26 806.674 2392.4 806.289C2405.2 805.155 2422.94 815.952 2419.86 829.063C2417.54 839.089 2403.66 843.717 2400.56 855.385C2400.18 857.259 2400.12 859.164 2400.48 861.077C2400.84 862.99 2401.61 864.918 2402.9 866.846C2408.68 875.198 2420.36 876.594 2428.11 871.026C2429.66 869.915 2431.05 868.519 2432.2 866.846C2437.6 857.591 2434.52 846.023 2432.97 835.997C2432.2 827.513 2441.46 824.428 2448.4 822.886C2455.34 822.114 2463.82 823.657 2467.6 830.243C2468.98 831.963 2470.25 833.745 2471.54 835.418C2475.39 840.431 2479.63 844.48 2486.96 842.938C2503.93 839.082 2496.99 821.343 2498.53 809.004C2499.3 803.605 2507.01 808.232 2510.75 809.698C2512.82 810.438 2514.52 811.433 2517.1 811.988C2519.67 812.543 2519.98 812.891 2521.08 813.515C2531.7 824.42 2544.81 838.303 2561.78 831.362C2571.03 828.277 2570.26 815.937 2565.63 808.225C2558.69 798.199 2546.35 796.656 2538.64 788.173C2537.87 786.63 2537.87 785.088 2536.83 783.167C2536.26 781.224 2535.83 779.257 2535.55 777.267C2535.27 775.278 2535.15 773.272 2535.2 771.252C2535.57 769.802 2536.26 768.468 2537.27 767.226C2540.3 763.501 2546.24 760.64 2555.31 758.226C2564.82 755.696 2565.62 742.531 2556.59 738.621C2554.01 737.503 2551.77 736.384 2549.87 735.251C2547.97 734.117 2546.39 732.798 2545.2 731.803C2540.38 722.224 2540.65 708.844 2548.02 701.077C2549.48 699.527 2549.92 699.365 2551.2 699.095C2564.1 702.566 2578.75 704.108 2588.78 694.082C2596.49 687.912 2594.95 676.344 2588.78 668.632C2584.92 664.775 2580.29 661.69 2574.9 661.69C2561.79 662.462 2552.53 672.488 2547.13 683.285C2546.36 685.599 2544.05 686.37 2541.52 686.663C2540.21 686.825 2537.73 686.486 2536.17 686.362C2518.6 685.599 2515.51 666.318 2508.57 653.978C2507.8 653.207 2506.26 652.436 2505.49 653.207C2499.32 660.148 2495.46 670.945 2483.89 667.86C2476.95 666.318 2470.78 661.69 2468.6 654.965C2467.98 653.261 2467.22 651.248 2466.98 649.312C2466.6 647.708 2466.23 645.981 2465.86 644.137C2465.5 642.286 2465.13 640.32 2464.77 638.23C2463.01 628.019 2449.02 626.384 2444.98 635.924H2444.97Z" fill="#FF6B6B"/>
<path d="M2350.74 577.264C2356.42 577.264 2361.02 572.661 2361.02 566.984C2361.02 561.306 2356.42 556.703 2350.74 556.703C2345.06 556.703 2340.46 561.306 2340.46 566.984C2340.46 572.661 2345.06 577.264 2350.74 577.264Z" fill="#FF6B6B"/>
<path d="M2554.01 794.173C2559.69 794.173 2564.29 789.571 2564.29 783.893C2564.29 778.215 2559.69 773.612 2554.01 773.612C2548.33 773.612 2543.73 778.215 2543.73 783.893C2543.73 789.571 2548.33 794.173 2554.01 794.173Z" fill="#FF6B6B"/>
<path d="M2439.46 859.851C2445.14 859.851 2449.74 855.248 2449.74 849.571C2449.74 843.893 2445.14 839.29 2439.46 839.29C2433.78 839.29 2429.18 843.893 2429.18 849.571C2429.18 855.248 2433.78 859.851 2439.46 859.851Z" fill="#FF6B6B"/>
<path d="M2504.01 899.763C2515.11 899.763 2524.1 890.768 2524.1 879.673C2524.1 868.577 2515.11 859.582 2504.01 859.582C2492.92 859.582 2483.92 868.577 2483.92 879.673C2483.92 890.768 2492.92 899.763 2504.01 899.763Z" fill="#FF6B6B"/>
<path d="M2570.52 622.226C2573.95 622.226 2576.73 619.443 2576.73 616.01C2576.73 612.577 2573.95 609.794 2570.52 609.794C2567.08 609.794 2564.3 612.577 2564.3 616.01C2564.3 619.443 2567.08 622.226 2570.52 622.226Z" fill="#FF6B6B"/>
<path d="M2273.5 738.421C2279.85 738.421 2285 733.273 2285 726.922C2285 720.571 2279.85 715.423 2273.5 715.423C2267.15 715.423 2262 720.571 2262 726.922C2262 733.273 2267.15 738.421 2273.5 738.421Z" fill="#FF6B6B"/>
<path d="M2296.21 749.688C2300.04 749.688 2303.15 746.584 2303.15 742.755C2303.15 738.925 2300.04 735.821 2296.21 735.821C2292.38 735.821 2289.28 738.925 2289.28 742.755C2289.28 746.584 2292.38 749.688 2296.21 749.688Z" fill="#FF6B6B"/>
<path d="M617.263 368.953C613.568 377.695 608.781 385.995 605.971 391.849C585.99 414.848 548.343 442.192 519.776 435.584C514.052 434.257 508.718 431.603 503.957 427.258C496.152 419.453 488.346 414.25 485.745 406.444C475.338 362.215 467.532 320.587 431.108 291.968C410.294 273.755 371.268 294.569 368.666 320.587C363.463 367.418 410.294 398.639 449.32 424.657C457.126 429.86 459.727 440.267 461.08 448.333C462.173 454.707 461.887 461.497 459.727 468.886C457.568 476.275 454.68 483.638 451.115 490.715C443.701 513.636 428.949 527.035 410.502 534.06C404.388 536.402 399.965 538.145 394.71 539.342C371.242 541.735 332.216 536.532 337.419 572.956C342.623 601.575 368.64 619.788 370.045 647.756C370.67 655.327 370.019 662.3 368.64 670.053C367.261 677.806 364.659 684.909 361.017 691.336C357.375 697.762 352.691 703.486 347.176 708.533C334.817 721.282 316.605 729.087 300.995 726.485C259.367 723.883 204.73 710.875 176.111 747.299C163.102 760.308 173.509 783.724 186.518 796.732C199.527 807.139 217.739 812.343 235.951 809.741C272.376 804.538 300.995 783.724 338.278 776.491C343.039 776.777 348.138 777.922 352.926 780.315C357.713 782.709 362.136 786.325 366.038 791.529C384.251 817.546 394.658 851.369 384.303 878.687C381.753 885.322 378.293 892.503 373.974 900.334C358.597 928.094 385.786 959.784 415.966 949.949C424.708 947.087 432.669 944.98 439.902 943.679C483.091 939.854 542.931 976.279 532.524 1020.51C524.719 1054.33 477.887 1069.94 467.428 1109.31C466.154 1115.63 465.945 1122.05 467.168 1128.51C468.365 1134.96 470.967 1141.46 475.312 1147.97C494.825 1176.14 534.215 1180.85 560.363 1162.07C565.592 1158.32 570.275 1153.61 574.178 1147.97C592.39 1116.75 581.983 1077.72 576.78 1043.9C574.178 1015.28 605.399 1004.87 628.815 999.668C652.23 997.067 680.85 1002.27 693.598 1024.49C698.255 1030.29 702.522 1036.3 706.867 1041.95C719.876 1058.86 734.185 1072.52 758.902 1067.31C816.14 1054.31 792.725 994.465 797.928 952.837C800.53 934.625 826.547 950.235 839.166 955.179C846.139 957.676 851.888 961.033 860.578 962.906C869.242 964.779 870.283 965.95 874.003 968.057C909.829 1004.85 954.059 1051.68 1011.3 1028.26C1042.52 1017.85 1039.92 976.227 1024.31 950.209C1000.89 916.387 959.262 911.183 933.245 882.564C930.643 877.36 930.643 872.157 927.131 865.679C925.206 859.122 923.749 852.488 922.812 845.775C921.875 839.063 921.459 832.298 921.641 825.482C922.89 820.59 925.206 816.089 928.614 811.9C938.839 799.334 958.872 789.682 989.495 781.538C1021.55 773.004 1024.25 728.593 993.814 715.402C985.098 711.629 977.527 707.857 971.126 704.032C964.726 700.208 959.393 695.759 955.36 692.402C939.125 660.089 940.036 614.948 964.882 588.749C969.826 583.519 971.283 582.973 975.601 582.062C1019.13 593.77 1068.56 598.974 1102.38 565.151C1128.4 544.337 1123.2 505.311 1102.38 479.293C1089.38 466.285 1073.77 455.878 1055.55 455.878C1011.32 458.479 980.102 492.302 961.89 528.726C959.288 536.532 951.483 539.133 942.976 540.122C938.553 540.668 930.175 539.524 924.919 539.107C865.626 536.532 855.219 471.488 831.803 429.86C829.201 427.258 823.998 424.657 821.396 427.258C800.582 450.674 787.573 487.099 748.547 476.692C725.131 471.488 704.317 455.878 696.954 433.19C694.873 427.44 692.323 420.65 691.491 414.12C690.216 408.708 688.967 402.88 687.718 396.662C686.495 390.418 685.273 383.783 684.05 376.732C678.118 342.285 630.922 336.77 617.289 368.953H617.263Z" fill="#FFE500"/>
<path d="M299.356 171.066C318.51 171.066 334.037 155.538 334.037 136.384C334.037 117.23 318.51 101.703 299.356 101.703C280.202 101.703 264.675 117.23 264.675 136.384C264.675 155.538 280.202 171.066 299.356 171.066Z" fill="#FFE500"/>
<path d="M985.099 902.808C1004.25 902.808 1019.78 887.28 1019.78 868.127C1019.78 848.973 1004.25 833.445 985.099 833.445C965.945 833.445 950.418 848.973 950.418 868.127C950.418 887.28 965.945 902.808 985.099 902.808Z" fill="#FFE500"/>
<path d="M598.661 1124.37C617.815 1124.37 633.342 1108.84 633.342 1089.69C633.342 1070.54 617.815 1055.01 598.661 1055.01C579.507 1055.01 563.979 1070.54 563.979 1089.69C563.979 1108.84 579.507 1124.37 598.661 1124.37Z" fill="#FFE500"/>
<path d="M985.099 1019.5C1022.53 1019.5 1052.87 989.153 1052.87 951.722C1052.87 914.29 1022.53 883.946 985.099 883.946C947.667 883.946 917.323 914.29 917.323 951.722C917.323 989.153 947.667 1019.5 985.099 1019.5Z" fill="#FFE500"/>
<path d="M1040.78 322.746C1052.36 322.746 1061.75 313.357 1061.75 301.776C1061.75 290.194 1052.36 280.806 1040.78 280.806C1029.19 280.806 1019.81 290.194 1019.81 301.776C1019.81 313.357 1029.19 322.746 1040.78 322.746Z" fill="#FFE500"/>
<path d="M38.792 714.728C60.2163 714.728 77.5841 697.36 77.5841 675.936C77.5841 654.511 60.2163 637.144 38.792 637.144C17.3678 637.144 0 654.511 0 675.936C0 697.36 17.3678 714.728 38.792 714.728Z" fill="#FFE500"/>
<path d="M115.414 752.736C128.331 752.736 138.803 742.265 138.803 729.347C138.803 716.429 128.331 705.957 115.414 705.957C102.496 705.957 92.0239 716.429 92.0239 729.347C92.0239 742.265 102.496 752.736 115.414 752.736Z" fill="#FFE500"/>
<path d="M1642.44 302.409C1638.17 302.024 1633.94 301.108 1631.04 300.705C1618.39 295.277 1601.44 282.847 1600.34 269.645C1600.12 267 1600.53 264.339 1601.75 261.692C1604.03 257.258 1605.19 253.183 1608.19 250.988C1625.79 240.416 1642.62 231.321 1649.92 211.706C1654.89 200.241 1640.55 186.318 1629 188.783C1608.13 192.997 1601.15 217.449 1595.34 237.825C1594.17 241.901 1590.05 244.454 1586.77 246.148C1584.18 247.496 1581.22 248.309 1577.74 248.398C1574.26 248.487 1570.7 248.259 1567.16 247.7C1556.28 247.668 1548.48 243.167 1542.92 236.198C1541.07 233.89 1539.71 232.228 1538.47 230.131C1534.2 220.364 1531.06 202.855 1516.11 210.113C1504.51 216.296 1500.26 229.999 1488.42 234.458C1485.25 235.77 1482.16 236.451 1478.63 236.926C1475.11 237.401 1471.69 237.26 1468.43 236.578C1465.16 235.897 1462.05 234.67 1459.12 232.993C1451.93 229.432 1446.06 222.672 1445.03 215.596C1440.42 197.327 1438.49 172.027 1418.87 164.732C1411.48 160.927 1402.84 168.632 1399.03 176.021C1396.35 183.052 1396.62 191.605 1400.25 199.083C1407.51 214.038 1420.41 223.483 1428.66 238.528C1429.19 240.616 1429.4 242.968 1429.03 245.358C1428.66 247.747 1427.71 250.148 1426.01 252.545C1417.33 263.966 1404.21 273.104 1391.03 272.413C1387.82 272.23 1384.25 271.731 1380.29 270.951C1366.23 268.161 1356.34 284.225 1364.73 295.856C1367.16 299.222 1369.17 302.358 1370.72 305.29C1378.32 323.346 1370.89 354.112 1350.43 355.728C1334.8 357.031 1321.63 339.032 1303.25 339.956C1300.36 340.279 1297.56 341.075 1294.96 342.49C1292.35 343.894 1289.91 345.909 1287.71 348.675C1278.27 360.953 1281.67 378.55 1293.36 387.212C1295.69 388.946 1298.36 390.312 1301.33 391.213C1317.27 394.747 1332.63 384.892 1346.46 377.993C1358.42 372.93 1367.2 384.929 1372.66 394.287C1377.01 404.003 1378.71 417.034 1370.91 425.581C1369.06 428.384 1367.06 431.048 1365.23 433.695C1359.74 441.623 1355.84 449.662 1361.48 459.579C1374.97 482.414 1397.49 464.094 1416.12 460.597C1424.31 459.207 1421.18 472.552 1420.79 478.662C1420.68 482.006 1420.03 484.943 1420.42 488.94C1420.8 492.926 1420.44 493.535 1420.05 495.426C1409.16 515.91 1395.1 541.393 1413.06 562.794C1421.84 574.793 1439.4 567.937 1448.44 557.636C1459.77 542.901 1456.27 524.273 1465 509.135C1466.88 507.298 1469.12 506.581 1471.42 504.178C1473.98 502.446 1476.63 500.905 1479.39 499.577C1482.15 498.249 1485 497.138 1487.96 496.277C1490.24 496.14 1492.49 496.516 1494.76 497.405C1501.58 500.073 1508.49 507.363 1516.22 519.416C1524.3 532.032 1543.79 527.076 1545.27 512.162C1545.69 507.892 1546.27 504.114 1547.03 500.833C1547.8 497.553 1548.98 494.645 1549.86 492.447C1561.53 481.009 1581.08 475.181 1595.77 482.262C1598.71 483.668 1599.14 484.22 1600.13 485.952C1601.09 506.294 1605.66 528.28 1624.87 538.172C1637.41 546.498 1653.49 538.882 1661.82 526.341C1665.62 518.952 1667.95 510.801 1665.44 502.965C1658.22 484.293 1639.37 475.521 1621.19 472.704C1617.47 472.66 1615.28 469.66 1613.68 466.136C1612.83 464.308 1612.17 460.546 1611.63 458.227C1604.56 432.36 1631.12 418.92 1645.8 403.109C1646.56 401.631 1646.96 399.034 1645.49 398.273C1632.54 392.544 1615.08 391.966 1614.18 373.741C1613.19 362.949 1617.04 351.842 1625.79 345.548C1627.97 343.861 1630.54 341.828 1633.24 340.57C1635.39 339.276 1637.73 337.935 1640.23 336.541C1642.75 335.155 1645.43 333.714 1648.3 332.217C1662.3 324.918 1658.17 303.851 1642.45 302.42L1642.44 302.409Z" fill="#62C6FF"/>
<path d="M1683.78 138.359C1686.42 146.6 1695.24 151.141 1703.48 148.502C1711.72 145.863 1716.27 137.043 1713.63 128.801C1710.99 120.56 1702.17 116.019 1693.93 118.658C1685.68 121.297 1681.14 130.118 1683.78 138.359Z" fill="#62C6FF"/>
<path d="M1463.43 534.235C1466.07 542.476 1474.89 547.017 1483.13 544.378C1491.37 541.739 1495.92 532.919 1493.28 524.677C1490.64 516.436 1481.82 511.895 1473.58 514.534C1465.33 517.173 1460.79 525.994 1463.43 534.235Z" fill="#62C6FF"/>
<path d="M1314.85 398.496C1317.49 406.737 1326.31 411.278 1334.56 408.639C1342.8 406 1347.34 397.179 1344.7 388.938C1342.06 380.697 1333.24 376.156 1325 378.795C1316.76 381.434 1312.22 390.255 1314.85 398.496Z" fill="#62C6FF"/>
<path d="M1413.23 550.314C1418.38 566.419 1435.62 575.293 1451.73 570.136C1467.83 564.978 1476.71 547.741 1471.55 531.636C1466.39 515.53 1449.15 506.656 1433.05 511.814C1416.94 516.971 1408.07 534.208 1413.23 550.314Z" fill="#62C6FF"/>
<path d="M1720.68 478.263C1722.28 483.246 1727.61 485.991 1732.59 484.396C1737.58 482.8 1740.32 477.467 1738.73 472.484C1737.13 467.5 1731.8 464.755 1726.81 466.35C1721.83 467.946 1719.09 473.28 1720.68 478.263Z" fill="#62C6FF"/>
<path d="M1413.96 101.161C1416.91 110.379 1426.78 115.458 1436 112.506C1445.22 109.554 1450.3 99.6884 1447.34 90.4704C1444.39 81.2524 1434.53 76.1729 1425.31 79.125C1416.09 82.0771 1411.01 91.9429 1413.96 101.161Z" fill="#62C6FF"/>
<path d="M1408.17 139.365C1409.95 144.923 1415.89 147.986 1421.45 146.206C1427.01 144.426 1430.07 138.478 1428.29 132.92C1426.51 127.362 1420.56 124.299 1415.01 126.079C1409.45 127.859 1406.39 133.807 1408.17 139.365Z" fill="#62C6FF"/>
</svg>
