<svg width="1638" height="1168" viewBox="0 0 1638 1168" fill="none" xmlns="http://www.w3.org/2000/svg">
<rect x="149.604" y="22.8988" width="1499" height="949" rx="99.5" transform="rotate(7.22846 149.604 22.8988)" fill="#FF8C00" stroke="#8A4D00"/>
<rect x="0.542391" y="133.542" width="1499" height="949" rx="99.5" transform="rotate(-5.0903 0.542391 133.542)" fill="#62C6FF" stroke="#8A4D00"/>
<rect x="74.5" y="99.4971" width="1499" height="949" rx="99.5" fill="white" stroke="#8A4D00"/>
<path d="M1467.66 944.791C1466.89 946.602 1465.9 948.322 1465.32 949.535C1461.18 954.301 1453.38 959.966 1447.46 958.597C1446.27 958.322 1445.17 957.772 1444.18 956.872C1442.56 955.255 1440.94 954.177 1440.41 952.559C1438.25 943.395 1436.63 934.769 1429.08 928.839C1424.77 925.065 1416.68 929.378 1416.15 934.769C1415.07 944.473 1424.77 950.942 1432.86 956.333C1434.48 957.411 1435.01 959.568 1435.29 961.239C1435.52 962.56 1435.46 963.967 1435.01 965.498C1434.57 967.029 1433.97 968.554 1433.23 970.021C1431.69 974.77 1428.64 977.546 1424.81 979.002C1423.55 979.487 1422.63 979.848 1421.54 980.096C1416.68 980.592 1408.59 979.514 1409.67 987.062C1410.75 992.992 1416.14 996.765 1416.43 1002.56C1416.56 1004.13 1416.43 1005.57 1416.14 1007.18C1415.85 1008.79 1415.32 1010.26 1414.56 1011.59C1413.81 1012.92 1412.84 1014.11 1411.69 1015.15C1409.13 1017.8 1405.36 1019.41 1402.12 1018.87C1393.5 1018.33 1382.18 1015.64 1376.25 1023.19C1373.55 1025.88 1375.71 1030.73 1378.4 1033.43C1381.1 1035.59 1384.87 1036.66 1388.65 1036.12C1396.19 1035.05 1402.12 1030.73 1409.85 1029.24C1410.84 1029.29 1411.89 1029.53 1412.88 1030.03C1413.88 1030.52 1414.79 1031.27 1415.6 1032.35C1419.37 1037.74 1421.53 1044.75 1419.39 1050.41C1418.86 1051.79 1418.14 1053.27 1417.25 1054.9C1414.06 1060.65 1419.69 1067.21 1425.95 1065.18C1427.76 1064.58 1429.41 1064.15 1430.91 1063.88C1439.86 1063.08 1452.25 1070.63 1450.1 1079.8C1448.48 1086.81 1438.78 1090.04 1436.61 1098.2C1436.35 1099.51 1436.3 1100.84 1436.56 1102.17C1436.8 1103.51 1437.34 1104.86 1438.24 1106.21C1442.29 1112.05 1450.45 1113.02 1455.87 1109.13C1456.95 1108.35 1457.92 1107.38 1458.73 1106.21C1462.5 1099.74 1460.35 1091.65 1459.27 1084.64C1458.73 1078.71 1465.2 1076.56 1470.05 1075.48C1474.9 1074.94 1480.83 1076.02 1483.47 1080.62C1484.44 1081.82 1485.32 1083.07 1486.22 1084.24C1488.92 1087.74 1491.88 1090.57 1497 1089.5C1508.87 1086.8 1504.01 1074.4 1505.09 1065.78C1505.63 1062 1511.02 1065.24 1513.64 1066.26C1515.08 1066.78 1516.27 1067.47 1518.07 1067.86C1519.87 1068.25 1520.08 1068.49 1520.85 1068.93C1528.28 1076.55 1537.44 1086.26 1549.3 1081.4C1555.77 1079.25 1555.23 1070.62 1552 1065.23C1547.15 1058.22 1538.52 1057.14 1533.13 1051.21C1532.59 1050.14 1532.59 1049.06 1531.86 1047.72C1531.46 1046.36 1531.16 1044.98 1530.97 1043.59C1530.77 1042.2 1530.69 1040.8 1530.73 1039.39C1530.98 1038.37 1531.46 1037.44 1532.17 1036.57C1534.29 1033.97 1538.44 1031.97 1544.79 1030.28C1551.43 1028.51 1551.99 1019.31 1545.68 1016.58C1543.87 1015.8 1542.31 1015.01 1540.98 1014.22C1539.65 1013.43 1538.55 1012.51 1537.71 1011.81C1534.35 1005.12 1534.54 995.763 1539.69 990.334C1540.71 989.25 1541.01 989.137 1541.91 988.948C1550.93 991.374 1561.17 992.452 1568.18 985.444C1573.57 981.131 1572.49 973.045 1568.18 967.654C1565.48 964.959 1562.25 962.802 1558.47 962.802C1549.31 963.341 1542.84 970.349 1539.07 977.897C1538.53 979.514 1536.91 980.053 1535.15 980.258C1534.23 980.371 1532.49 980.134 1531.4 980.048C1519.12 979.514 1516.96 966.037 1512.11 957.411C1511.57 956.872 1510.49 956.333 1509.95 956.872C1505.64 961.724 1502.95 969.271 1494.86 967.115C1490.01 966.037 1485.69 962.802 1484.17 958.101C1483.74 956.91 1483.21 955.503 1483.04 954.15C1482.77 953.028 1482.51 951.821 1482.26 950.532C1482 949.238 1481.75 947.864 1481.5 946.403C1480.27 939.265 1470.49 938.122 1467.66 944.791H1467.66Z" fill="#FFE500"/>
<path d="M1415.78 925.787C1419.75 925.787 1422.97 922.57 1422.97 918.601C1422.97 914.632 1419.75 911.415 1415.78 911.415C1411.82 911.415 1408.6 914.632 1408.6 918.601C1408.6 922.57 1411.82 925.787 1415.78 925.787Z" fill="#FFE500"/>
<path d="M1557.87 1077.41C1561.84 1077.41 1565.06 1074.19 1565.06 1070.22C1565.06 1066.25 1561.84 1063.04 1557.87 1063.04C1553.91 1063.04 1550.69 1066.25 1550.69 1070.22C1550.69 1074.19 1553.91 1077.41 1557.87 1077.41Z" fill="#FFE500"/>
<path d="M1477.8 1123.32C1481.77 1123.32 1484.99 1120.1 1484.99 1116.13C1484.99 1112.16 1481.77 1108.95 1477.8 1108.95C1473.83 1108.95 1470.62 1112.16 1470.62 1116.13C1470.62 1120.1 1473.83 1123.32 1477.8 1123.32Z" fill="#FFE500"/>
<path d="M1557.87 1101.59C1565.63 1101.59 1571.92 1095.3 1571.92 1087.54C1571.92 1079.79 1565.63 1073.5 1557.87 1073.5C1550.12 1073.5 1543.83 1079.79 1543.83 1087.54C1543.83 1095.3 1550.12 1101.59 1557.87 1101.59Z" fill="#FFE500"/>
<path d="M1569.41 957.217C1571.81 957.217 1573.76 955.271 1573.76 952.871C1573.76 950.472 1571.81 948.526 1569.41 948.526C1567.01 948.526 1565.07 950.472 1565.07 952.871C1565.07 955.271 1567.01 957.217 1569.41 957.217Z" fill="#FFE500"/>
<path d="M1361.79 1038.44C1366.23 1038.44 1369.83 1034.84 1369.83 1030.4C1369.83 1025.96 1366.23 1022.36 1361.79 1022.36C1357.35 1022.36 1353.76 1025.96 1353.76 1030.4C1353.76 1034.84 1357.35 1038.44 1361.79 1038.44Z" fill="#FFE500"/>
<path d="M1377.67 1046.31C1380.35 1046.31 1382.52 1044.14 1382.52 1041.47C1382.52 1038.79 1380.35 1036.62 1377.67 1036.62C1374.99 1036.62 1372.82 1038.79 1372.82 1041.47C1372.82 1044.14 1374.99 1046.31 1377.67 1046.31Z" fill="#FFE500"/>
<path d="M1427.66 988.791C1426.89 990.602 1425.9 992.322 1425.32 993.535C1421.18 998.301 1413.38 1003.97 1407.46 1002.6C1406.27 1002.32 1405.17 1001.77 1404.18 1000.87C1402.56 999.255 1400.94 998.177 1400.41 996.559C1398.25 987.395 1396.63 978.769 1389.08 972.839C1384.77 969.065 1376.68 973.378 1376.15 978.769C1375.07 988.473 1384.77 994.942 1392.86 1000.33C1394.48 1001.41 1395.01 1003.57 1395.29 1005.24C1395.52 1006.56 1395.46 1007.97 1395.01 1009.5C1394.57 1011.03 1393.97 1012.55 1393.23 1014.02C1391.69 1018.77 1388.64 1021.55 1384.81 1023C1383.55 1023.49 1382.63 1023.85 1381.54 1024.1C1376.68 1024.59 1368.59 1023.51 1369.67 1031.06C1370.75 1036.99 1376.14 1040.77 1376.43 1046.56C1376.56 1048.13 1376.43 1049.57 1376.14 1051.18C1375.85 1052.79 1375.32 1054.26 1374.56 1055.59C1373.81 1056.92 1372.84 1058.11 1371.69 1059.15C1369.13 1061.8 1365.36 1063.41 1362.12 1062.87C1353.5 1062.33 1342.18 1059.64 1336.25 1067.19C1333.55 1069.88 1335.71 1074.73 1338.4 1077.43C1341.1 1079.59 1344.87 1080.66 1348.65 1080.12C1356.19 1079.05 1362.12 1074.73 1369.85 1073.24C1370.84 1073.29 1371.89 1073.53 1372.88 1074.03C1373.88 1074.52 1374.79 1075.27 1375.6 1076.35C1379.37 1081.74 1381.53 1088.75 1379.39 1094.41C1378.86 1095.79 1378.14 1097.27 1377.25 1098.9C1374.06 1104.65 1379.69 1111.21 1385.95 1109.18C1387.76 1108.58 1389.41 1108.15 1390.91 1107.88C1399.86 1107.08 1412.25 1114.63 1410.1 1123.8C1408.48 1130.81 1398.78 1134.04 1396.61 1142.2C1396.35 1143.51 1396.3 1144.84 1396.56 1146.17C1396.8 1147.51 1397.34 1148.86 1398.24 1150.21C1402.29 1156.05 1410.45 1157.02 1415.87 1153.13C1416.95 1152.35 1417.92 1151.38 1418.73 1150.21C1422.5 1143.74 1420.35 1135.65 1419.27 1128.64C1418.73 1122.71 1425.2 1120.56 1430.05 1119.48C1434.9 1118.94 1440.83 1120.02 1443.47 1124.62C1444.44 1125.82 1445.32 1127.07 1446.22 1128.24C1448.92 1131.74 1451.88 1134.57 1457 1133.5C1468.87 1130.8 1464.01 1118.4 1465.09 1109.78C1465.63 1106 1471.02 1109.24 1473.64 1110.26C1475.08 1110.78 1476.27 1111.47 1478.07 1111.86C1479.87 1112.25 1480.08 1112.49 1480.85 1112.93C1488.28 1120.55 1497.44 1130.26 1509.3 1125.4C1515.77 1123.25 1515.23 1114.62 1512 1109.23C1507.15 1102.22 1498.52 1101.14 1493.13 1095.21C1492.59 1094.14 1492.59 1093.06 1491.86 1091.72C1491.46 1090.36 1491.16 1088.98 1490.97 1087.59C1490.77 1086.2 1490.69 1084.8 1490.73 1083.39C1490.98 1082.37 1491.46 1081.44 1492.17 1080.57C1494.29 1077.97 1498.44 1075.97 1504.79 1074.28C1511.43 1072.51 1511.99 1063.31 1505.68 1060.58C1503.87 1059.8 1502.31 1059.01 1500.98 1058.22C1499.65 1057.43 1498.55 1056.51 1497.71 1055.81C1494.35 1049.12 1494.54 1039.76 1499.69 1034.33C1500.71 1033.25 1501.01 1033.14 1501.91 1032.95C1510.93 1035.37 1521.17 1036.45 1528.18 1029.44C1533.57 1025.13 1532.49 1017.04 1528.18 1011.65C1525.48 1008.96 1522.25 1006.8 1518.47 1006.8C1509.31 1007.34 1502.84 1014.35 1499.07 1021.9C1498.53 1023.51 1496.91 1024.05 1495.15 1024.26C1494.23 1024.37 1492.49 1024.13 1491.4 1024.05C1479.12 1023.51 1476.96 1010.04 1472.11 1001.41C1471.57 1000.87 1470.49 1000.33 1469.95 1000.87C1465.64 1005.72 1462.95 1013.27 1454.86 1011.11C1450.01 1010.04 1445.69 1006.8 1444.17 1002.1C1443.74 1000.91 1443.21 999.503 1443.04 998.15C1442.77 997.028 1442.51 995.821 1442.26 994.532C1442 993.238 1441.75 991.864 1441.5 990.403C1440.27 983.265 1430.49 982.122 1427.66 988.791H1427.66Z" fill="#62C6FF"/>
<path d="M1375.78 969.787C1379.75 969.787 1382.97 966.57 1382.97 962.601C1382.97 958.632 1379.75 955.415 1375.78 955.415C1371.82 955.415 1368.6 958.632 1368.6 962.601C1368.6 966.57 1371.82 969.787 1375.78 969.787Z" fill="#62C6FF"/>
<path d="M1517.87 1121.41C1521.84 1121.41 1525.06 1118.19 1525.06 1114.22C1525.06 1110.25 1521.84 1107.04 1517.87 1107.04C1513.91 1107.04 1510.69 1110.25 1510.69 1114.22C1510.69 1118.19 1513.91 1121.41 1517.87 1121.41Z" fill="#62C6FF"/>
<path d="M1437.8 1167.32C1441.77 1167.32 1444.99 1164.1 1444.99 1160.13C1444.99 1156.16 1441.77 1152.95 1437.8 1152.95C1433.83 1152.95 1430.62 1156.16 1430.62 1160.13C1430.62 1164.1 1433.83 1167.32 1437.8 1167.32Z" fill="#62C6FF"/>
<path d="M1517.87 1145.59C1525.63 1145.59 1531.92 1139.3 1531.92 1131.54C1531.92 1123.79 1525.63 1117.5 1517.87 1117.5C1510.12 1117.5 1503.83 1123.79 1503.83 1131.54C1503.83 1139.3 1510.12 1145.59 1517.87 1145.59Z" fill="#62C6FF"/>
<path d="M1529.41 1001.22C1531.81 1001.22 1533.76 999.271 1533.76 996.871C1533.76 994.472 1531.81 992.526 1529.41 992.526C1527.01 992.526 1525.07 994.472 1525.07 996.871C1525.07 999.271 1527.01 1001.22 1529.41 1001.22Z" fill="#62C6FF"/>
<path d="M1321.79 1082.44C1326.23 1082.44 1329.83 1078.84 1329.83 1074.4C1329.83 1069.96 1326.23 1066.36 1321.79 1066.36C1317.35 1066.36 1313.76 1069.96 1313.76 1074.4C1313.76 1078.84 1317.35 1082.44 1321.79 1082.44Z" fill="#62C6FF"/>
<path d="M1337.67 1090.31C1340.35 1090.31 1342.52 1088.14 1342.52 1085.47C1342.52 1082.79 1340.35 1080.62 1337.67 1080.62C1334.99 1080.62 1332.82 1082.79 1332.82 1085.47C1332.82 1088.14 1334.99 1090.31 1337.67 1090.31Z" fill="#62C6FF"/>
</svg>
