<svg width="1566" height="1280" viewBox="0 0 1566 1280" fill="none" xmlns="http://www.w3.org/2000/svg">
<path d="M1547.58 267.343C1547.73 268.685 1547.43 270.089 1547.58 271.431C1549.3 286.587 1550.3 302.02 1551.37 317.219C1551.49 318.986 1550.69 323.286 1553.71 322.498C1553.71 323.179 1553.69 323.86 1553.71 324.542C1552.03 325.563 1552.07 329.693 1553.71 330.672C1553.73 331.354 1553.69 332.035 1553.71 332.716C1554.56 352.002 1556.79 371.182 1557.79 390.446C1564.33 516.891 1565.92 644.251 1560.86 770.952C1560.79 772.314 1560.92 773.677 1560.86 775.039C1559.33 813.121 1555.18 852.055 1553.71 890.457C1553.69 891.138 1553.73 891.82 1553.71 892.501C1552.03 893.522 1552.07 897.652 1553.71 898.631C1553.69 899.653 1553.73 900.675 1553.71 901.697C1550.62 901.122 1551.73 903.251 1551.66 905.23C1551.39 912.872 1551.2 920.642 1550.64 928.263C1550.56 929.285 1550.71 930.307 1550.64 931.328C1550.07 940.077 1548.2 948.422 1548.6 957.895C1548.62 958.576 1548.56 959.257 1548.6 959.938C1547.07 960.641 1547.62 962.684 1547.58 964.025C1547.49 967.069 1547.58 970.156 1547.58 973.221L1546.56 974.733L1547.58 975.244C1547.56 976.606 1547.62 977.968 1547.58 979.331C1544.49 978.756 1545.62 980.884 1545.54 982.864C1545.34 987.547 1544.73 992.081 1544.51 996.701C1544.39 999.745 1544.62 1002.85 1544.51 1005.9V1006.92C1544.51 1008.28 1544.56 1009.64 1544.51 1011.01C1541.28 1009.88 1542.37 1017.16 1542.47 1020.2C1542.51 1021.56 1542.39 1022.95 1542.47 1024.29C1540.83 1025.14 1541.49 1027.76 1541.45 1029.4C1541.41 1031.44 1541.45 1033.48 1541.45 1035.53L1540.43 1037.04L1541.45 1037.55C1541.45 1038.57 1541.45 1039.59 1541.45 1040.62C1538.36 1040.04 1539.49 1042.17 1539.41 1044.15C1539.24 1048.34 1539.26 1052.79 1539.41 1056.96C1539.45 1057.99 1539.34 1059.01 1539.41 1060.03C1537.88 1060.73 1538.43 1062.78 1538.39 1064.12C1538.3 1067.16 1538.58 1070.29 1538.39 1073.31C1535.94 1072.16 1535.68 1077.83 1535.32 1080.47C1535.07 1082.38 1535.6 1084.7 1535.32 1086.6C1532.58 1086 1533.36 1088 1532.79 1089.62C1531.6 1093.02 1530.28 1096.43 1529.19 1099.88C1528.94 1100.67 1529.45 1102.16 1529.19 1102.94C1526.87 1102.56 1523.79 1109.73 1523.06 1112.14C1522.89 1112.67 1523.17 1113.55 1523.06 1114.18C1520.89 1113.95 1520.79 1114.06 1521.02 1116.23C1520.87 1116.31 1521.13 1116.91 1521.02 1117.25C1520.3 1116.23 1517.06 1120.76 1516.98 1121.06C1516.7 1121.93 1517.11 1122.95 1516.94 1123.38C1516.83 1123.66 1517.02 1124.06 1516.94 1124.4C1513.96 1124.64 1513.53 1126.04 1512.85 1128.49C1512.76 1128.79 1512.91 1129.17 1512.85 1129.51C1510.68 1129.28 1510.57 1129.38 1510.81 1131.55C1510.64 1131.64 1510.93 1132.28 1510.81 1132.58C1508.74 1132.49 1507.66 1133.62 1507.74 1135.64C1507.27 1136 1507.08 1136.19 1506.72 1136.66C1504.55 1136.43 1504.44 1136.54 1504.68 1138.71C1504.51 1138.86 1504.85 1139.52 1504.68 1139.73C1500.34 1140.94 1497.4 1145.84 1494.46 1148.92C1493.42 1150.01 1492.44 1150.95 1491.4 1151.99C1489.23 1151.73 1489.1 1151.86 1489.36 1154.03C1488.78 1154.44 1487.68 1154.67 1487.31 1155.05C1485.36 1154.71 1484.93 1155.14 1485.27 1157.1C1483.53 1157.74 1483.44 1157.18 1482.21 1159.14C1480.42 1158.87 1479.78 1159.38 1480.16 1161.19C1477.99 1162.44 1476.23 1163.19 1474.03 1164.25C1472.44 1165.02 1470.67 1164.85 1469.95 1167.32C1469.63 1167.4 1469.25 1167.23 1468.93 1167.32C1466.86 1167.91 1464.78 1168.04 1463.82 1170.38C1463.5 1170.47 1463.12 1170.3 1462.8 1170.38C1460.71 1170.89 1458.1 1170.83 1458.71 1173.45C1458.1 1173.57 1457.27 1173.3 1456.67 1173.45C1454.56 1173.96 1450.92 1173.34 1451.56 1176.51C1450.73 1176.7 1448.78 1176.28 1448.5 1176.51C1446.07 1176.47 1444.97 1175.83 1445.43 1178.56C1426.52 1184.13 1410.75 1185.75 1391.3 1187.75C1369.19 1190.01 1347.06 1192.63 1324.9 1194.9C1119.74 1215.98 911.858 1227.62 705.399 1224.51C559.971 1222.34 414.266 1214.64 269.754 1198.99C249.538 1196.8 228.023 1193.2 207.446 1190.82C189.975 1188.79 173.27 1186.9 155.82 1185.75C142.733 1184.88 131.774 1180.15 119.601 1176.51C120.24 1173.45 116.665 1173.85 114.494 1173.45C113.856 1173.32 113.026 1173.6 112.451 1173.45C113.005 1170.98 111.196 1171.34 109.77 1170.57C105.301 1168.17 100.79 1165.78 96.1082 1164.25C95.8103 1164.14 95.406 1164.34 95.0868 1164.25C94.725 1160.44 92.8098 1160.74 89.9796 1160.16C89.6604 1160.1 89.2773 1160.23 88.9581 1160.16C89.0433 1157.84 87.5324 1157.44 86.213 1156.27C80.5951 1151.27 75.1048 1146.35 69.5507 1141.24C68.2952 1140.09 67.444 1138.69 65.4437 1138.71C65.2734 1138.49 65.6139 1137.83 65.4437 1137.68C65.6777 1135.51 65.5713 1135.41 63.4008 1135.64C63.0603 1135.3 62.7198 1134.98 62.3793 1134.62C62.4645 1132.6 61.3792 1131.47 59.315 1131.55C59.1873 1131.26 59.4427 1130.79 59.315 1130.53C55.8038 1123.72 50.8668 1117.5 47.2067 1110.46C33.7364 1084.59 32.8852 1064.24 29.6932 1036.55C29.5442 1035.21 29.8421 1033.8 29.6932 1032.46C27.8418 1016.52 25.2882 1000.04 23.5645 984.461C23.5007 983.801 23.6283 983.077 23.5645 982.417C23.0751 977.5 24.3731 971.689 21.5216 967.091C21.5003 966.069 21.5642 965.047 21.5216 964.025C21.0534 951.359 18.6275 939.268 17.4358 927.241C17.3082 925.9 17.5422 924.495 17.4358 923.154C17.0102 917.598 18.5211 911.957 15.393 906.806C15.393 906.124 15.393 905.443 15.393 904.762C15.3078 901.186 14.4353 896.928 14.3715 894.544C14.3715 893.863 14.4141 893.182 14.3715 892.501C14.2438 889.946 14.8184 877.791 14.3715 877.174C14.2438 877.004 12.9032 877.281 12.3286 877.174C12.3286 876.493 12.3286 875.812 12.3286 875.131C12.2861 869 11.6051 863.593 11.3072 857.76C11.2646 856.739 11.371 855.717 11.3072 854.695C10.839 847.245 12.435 839.305 9.26429 832.216C9.24301 830.513 9.30685 828.81 9.26429 827.107C8.81741 804.522 6.07228 781.659 5.17852 759.691C5.0934 757.648 5.26364 755.604 5.17852 753.56C1.19915 654.086 0.390507 553.76 5.17852 454.265C5.26364 452.562 5.0934 450.859 5.17852 449.156C5.17852 449.071 6.09356 449.262 6.17868 447.645C7.54061 420.546 7.71085 389.063 13.3501 363.688C14.6694 357.749 13.7331 349.447 14.3928 343.466C19.0744 301.616 23.8199 260.063 29.6932 218.319C30.2252 214.573 29.2037 209.847 29.6932 206.058L30.7146 205.036C32.0978 195.415 35.226 185.772 35.8218 176.427C39.865 176.831 36.8858 174.873 36.8433 174.383C36.7369 173.042 36.8433 171.637 36.8433 170.296C39.7161 170.892 38.7797 168.891 39.1841 167.082C48.5899 126.04 85.3831 89.8096 123.666 74.8023C161.736 59.88 202.381 60.9444 242.643 57.9429C445.591 42.7227 649.539 35.996 853.423 39.6148C1029.01 42.7227 1205.63 46.6182 1380.53 62.0513C1463.93 69.4167 1520.6 97.2175 1536.05 185.388C1540.66 211.784 1544.51 241.033 1547.54 267.365L1547.58 267.343ZM1328.44 1081.17C1334.54 1076.72 1351.27 1055.37 1355.33 1048.3C1368.57 1025.33 1370.06 1004.28 1372.59 978.734C1394.15 761.735 1400.85 541.456 1378.79 324.052C1376.25 299.082 1372.98 274.304 1370.61 249.484C1365.17 192.434 1322.76 151.265 1266.17 146.987C964.399 124.231 659.711 119.611 357.087 136.748C301.844 139.877 246.686 138.876 191.592 142.665C162.225 144.688 140.243 167.848 120.368 189.412C89.022 223.428 89.0007 260.446 83.2976 304.042C56.9316 505.843 50.0582 698.661 70.5934 901.165C74.0408 935.224 80.7015 965.92 85.3192 999.83C92.5119 1052.73 132.114 1094.26 184.548 1100.54C379.58 1123.93 575.633 1144.24 772.878 1140.73C925.563 1138 1078.33 1121.17 1229.4 1104.67C1270.11 1100.22 1294.15 1106.2 1328.44 1081.15V1081.17ZM1436.24 333.738C1431.86 339.719 1433.65 340.124 1432.16 345.999C1431.16 349.98 1416.26 358.516 1413.66 363.007C1410.75 368.031 1410.62 370.458 1409.32 375.971C1409.13 376.801 1407.53 376.546 1407.43 377.291C1406.77 381.782 1406.73 399.323 1407.43 403.687C1407.56 404.411 1410.58 413.415 1411 414.415C1416.62 428.273 1443.6 443.11 1458.27 445.047C1464.76 445.899 1472.5 444.537 1479.14 445.111C1479.38 445.622 1487.04 451.668 1487.97 452.115C1492.42 454.329 1500.44 454.243 1501.61 448.177C1511.45 445.111 1506.04 435.319 1507.96 428.486C1508.51 426.506 1514.72 420.376 1516.34 416.438C1531.56 379.271 1512.15 340.379 1471.35 335.951C1467.65 335.547 1461.12 336.59 1458.37 335.653C1456.37 334.972 1454.12 328.48 1450.01 327.671C1442.9 326.287 1440.14 328.48 1436.24 333.78V333.738ZM1513.87 522.724C1512.47 521.298 1512.34 521.404 1511.19 520.361C1508.47 517.913 1508.64 514.252 1503.17 514.465C1496.78 514.72 1492.89 522.575 1489.65 523.533C1485.19 524.853 1477.21 523.256 1471.16 524.448C1434.2 531.813 1416.94 574.558 1436.86 606.361C1438.52 609 1443.56 613.215 1444.18 615.386C1445.37 619.601 1443.52 625.412 1444.84 630.074C1445.29 631.671 1447.9 633.118 1449.5 636.099C1449.8 636.631 1449.29 637.823 1450.5 638.632C1457.14 643.102 1467.63 635.886 1470.95 629.968C1477.27 629.436 1484.61 630.734 1490.78 629.883C1527.24 624.774 1546.64 580.39 1527.55 549.354C1525.13 545.395 1520.11 538.796 1515.89 537.007C1516.98 533.538 1517.72 526.513 1515.87 523.448C1515.21 522.341 1513.98 522.83 1513.85 522.703L1513.87 522.724ZM1536.83 691.807C1534.09 688.614 1532.9 688.528 1528.72 688.167C1500.53 689.933 1469.76 685.91 1441.88 688.209C1432.6 688.976 1428.03 691.679 1429.07 702.003C1429.62 707.495 1432.71 709.092 1437.8 709.645C1466.61 712.86 1501.25 707.282 1530.68 709.581C1538.68 707.559 1539.34 701.067 1538.47 693.765C1538.26 692.041 1537.43 692.467 1536.85 691.807H1536.83ZM1535.02 738.979C1539.47 733.827 1538.47 721.864 1529.72 720.864C1500.68 717.521 1465.4 723.439 1435.69 720.842C1423.62 722.481 1423.79 742.193 1436.75 742.342C1465.31 740.32 1497.53 745.024 1525.66 742.385C1528.34 742.129 1533.26 741.044 1535.02 739V738.979ZM1533 755.923C1531.49 754.689 1518.68 753.688 1515.47 753.539C1495.14 752.539 1474.35 753.88 1454.18 754.646C1440.03 755.178 1416.77 748.835 1419.75 769.377C1420.54 774.762 1433.01 775.592 1437.8 776.039C1464.95 778.573 1495.91 774.294 1523.47 775.954C1533.73 777.295 1539.83 761.479 1532.98 755.945L1533 755.923ZM1418.94 804.33C1419.64 805.33 1430.01 807.778 1431.58 807.778C1463.65 807.14 1496.02 808.779 1527.89 806.948C1535.7 802.606 1536.6 789.855 1527.62 786.3L1431.58 786.215C1424.07 786.917 1415.34 799.221 1418.94 804.33ZM1528.9 818.23C1527.58 817.272 1524.34 816.996 1522.6 816.868C1493.08 814.569 1460.54 818.613 1430.69 816.974C1414.43 819.571 1411.6 836.005 1429.56 838.41L1524.55 838.304C1533.17 836.793 1534.9 822.594 1528.9 818.23ZM1429.86 849.842C1412.51 851.247 1409.81 868.17 1427.62 870.98L1521.45 870.937C1530.49 871.363 1533.09 855.568 1526.72 851.544C1525.23 850.608 1518.62 849.756 1516.42 849.586C1488.65 847.394 1457.93 850.991 1429.86 849.82V849.842ZM1419.35 881.474C1410.28 883.496 1410.49 900.228 1418.13 901.654L1521.47 901.612C1530.81 900.164 1531.9 883.135 1521.47 881.304L1419.35 881.453V881.474Z" fill="#FF8C00"/>
<path d="M1296.84 29.3122C1374.61 37.4652 1487.21 38.7211 1523.94 122.933C1529.66 136.045 1531.32 148.86 1534.17 162.739C1540.79 194.989 1545.43 228.687 1548.49 261.852C1548.66 263.81 1549.13 265.705 1547.58 267.323C1544.56 240.99 1540.71 211.742 1536.09 185.346C1520.64 97.1753 1463.97 69.3531 1380.57 62.0091C1205.67 46.576 1029.05 42.6805 853.466 39.5726C649.581 35.9751 445.633 42.7018 242.685 57.9007C202.402 60.9235 161.757 59.8591 123.708 74.7601C85.4256 89.7674 48.6323 126.019 39.2266 167.039C38.8222 168.849 39.7586 170.85 36.8857 170.254C37.3113 133.236 58.5276 93.4926 88.4686 72.1843C116.111 52.5151 141.86 46.7463 174.185 41.4458C320.868 17.3489 555.843 0 781.028 0C1006.21 0 1296.86 29.2697 1296.86 29.2697L1296.84 29.3122Z" fill="#8A4D00"/>
<path d="M1391.3 1187.71L1411.68 1271.05C1411.58 1274.3 1397 1279.09 1393.77 1279.56C1388.66 1280.26 1373.49 1280.54 1369.83 1277.11C1354.76 1249.76 1339.01 1222.68 1324.9 1194.86C1347.06 1192.58 1369.19 1189.97 1391.3 1187.71Z" fill="#8A4D00"/>
<path d="M269.753 1198.95C258.539 1220.92 245.664 1242.05 233.833 1263.64C232.79 1265.56 230.066 1272.92 229.683 1273.28C227.193 1275.73 210.871 1276.07 206.998 1275.5C203.125 1274.92 188.378 1270.05 188.123 1265.94L207.445 1190.77C228.023 1193.16 249.537 1196.76 269.753 1198.95Z" fill="#8A4D00"/>
<path d="M1553.71 332.716C1557.01 332.141 1555.45 334.376 1555.71 336.292C1557.71 352.044 1558.81 370.33 1559.84 386.359C1567.82 513.102 1567.16 640.462 1562.92 767.418C1562.86 769.398 1563.96 771.527 1560.88 770.952C1565.92 644.273 1564.33 516.891 1557.81 390.446C1556.81 371.182 1554.58 352.002 1553.73 332.716H1553.71Z" fill="#F4AF01"/>
<path d="M29.7144 218.32C23.8411 260.043 19.0743 301.616 14.414 343.466C13.7543 349.448 14.6906 357.75 13.3713 363.689C7.75333 389.063 7.56181 420.547 6.19989 447.645C6.11477 449.263 5.221 449.071 5.19972 449.157C3.60372 442.685 3.79524 433.979 4.17828 427.21C8.07253 361.049 16.7335 294.506 24.7348 229.155C25.0753 226.409 25.3519 216.83 29.7144 218.299V218.32Z" fill="#F4AF01"/>
<path d="M5.19983 454.265C0.41182 553.76 1.22046 654.086 5.19983 753.56C2.11423 754.135 3.24207 752.006 3.15695 750.027C-0.716023 652.213 -1.37571 555.612 3.15695 457.777C3.24207 455.819 2.11423 453.69 5.19983 454.243V454.265Z" fill="#F4AF01"/>
<path d="M1560.86 775.018C1563.39 786.555 1560.35 799.519 1559.79 811.248C1558.64 835.771 1558.92 862.678 1555.71 886.881C1555.45 888.797 1557.01 891.032 1553.71 890.457C1555.18 852.055 1559.33 813.1 1560.86 775.039V775.018Z" fill="#F4AF01"/>
<path d="M59.3362 1130.51C54.1652 1129.34 53.9098 1123.76 51.8456 1120.63C34.8429 1094.73 30.3102 1073.31 28.6291 1042.17C28.5227 1040.25 28.3312 1038.08 29.7356 1036.55C32.9064 1064.24 33.7789 1084.59 47.2491 1110.46C50.9306 1117.5 55.8463 1123.72 59.3575 1130.53L59.3362 1130.51Z" fill="#F4AF01"/>
<path d="M9.28586 827.129C6.20025 827.703 7.32809 825.575 7.24297 823.595C6.41305 804.309 3.77432 784.406 4.15736 765.269C4.19992 763.331 3.6892 761.288 5.20008 759.691C6.09385 781.66 8.83898 804.522 9.28586 827.107V827.129Z" fill="#F4AF01"/>
<path d="M1547.58 271.431C1550.64 270.835 1549.41 272.921 1549.77 274.815C1552.37 288.695 1553.28 308.151 1553.71 322.52C1550.69 323.307 1551.47 319.007 1551.37 317.241C1550.3 302.042 1549.32 286.609 1547.58 271.452V271.431Z" fill="#F4AF01"/>
<path d="M29.7147 1032.44C26.5014 1033.02 27.9697 1030.85 27.6505 1028.93C26.0758 1019.69 25.5225 1010.62 24.4798 1001.41C23.8839 996.062 20.6281 989.74 23.586 984.439C25.3097 1000.02 27.8633 1016.5 29.7147 1032.44Z" fill="#F4AF01"/>
<path d="M21.5432 964.004C18.3086 964.6 19.8195 962.407 19.479 960.491C18.4576 954.744 18.9683 950.487 18.4576 945.122C17.9043 939.417 14.4782 932.84 17.4574 927.22C18.6491 939.247 21.075 951.317 21.5432 964.004Z" fill="#F4AF01"/>
<path d="M88.958 1160.12C84.5956 1159.25 87.0641 1159.5 84.7659 1157.72C76.3602 1151.16 71.8489 1146.94 65.4648 1138.66C67.4652 1138.64 68.3164 1140.05 69.5719 1141.2C75.1047 1146.29 80.6162 1151.2 86.2342 1156.23C87.5536 1157.4 89.0644 1157.8 88.9793 1160.12H88.958Z" fill="#F4AF01"/>
<path d="M1553.71 901.697C1553.52 909.701 1553.52 916.641 1552.64 924.687C1552.43 926.624 1553.88 928.817 1550.64 928.242C1551.2 920.621 1551.39 912.851 1551.66 905.209C1551.73 903.251 1550.62 901.101 1553.71 901.676V901.697Z" fill="#F4AF01"/>
<path d="M1550.64 931.307C1553.3 934.904 1550.83 939.417 1550.64 943.057C1550.45 946.697 1550.75 950.571 1550.64 954.339C1550.58 956.298 1551.69 958.448 1548.6 957.873C1548.2 948.4 1550.07 940.077 1550.64 931.307Z" fill="#F4AF01"/>
<path d="M11.3286 854.695C8.24297 855.27 9.34953 853.141 9.28569 851.161C9.05161 844.796 9.37081 838.112 9.28569 832.216C12.4564 839.304 10.8604 847.244 11.3286 854.695Z" fill="#F4AF01"/>
<path d="M96.1084 1164.21C100.769 1165.74 105.28 1168.13 109.77 1170.53C111.196 1171.3 113.005 1170.94 112.451 1173.4C108.579 1172.45 105.535 1171.04 101.939 1169.1C99.8324 1167.98 96.1084 1167.1 96.1084 1164.21Z" fill="#F4AF01"/>
<path d="M17.4569 923.133C14.2223 923.708 15.6268 921.494 15.4353 919.578C14.9459 914.575 15.4566 910.871 15.414 906.806C18.5422 911.957 17.0313 917.598 17.4569 923.154V923.133Z" fill="#F4AF01"/>
<path d="M12.35 875.131C10.5838 870.022 8.96651 862.891 11.3286 857.761C11.6265 863.593 12.3075 869 12.35 875.131Z" fill="#F4AF01"/>
<path d="M1547.58 979.33C1547.43 984.46 1547.43 988.015 1546.58 993.188C1546.26 995.104 1547.73 997.275 1544.51 996.7C1544.73 992.081 1545.32 987.547 1545.54 982.864C1545.62 980.905 1544.49 978.777 1547.58 979.33Z" fill="#F4AF01"/>
<path d="M1541.45 1040.62C1541.43 1044.87 1541.6 1049.17 1541.45 1053.43C1541.39 1055.39 1542.49 1057.54 1539.41 1056.96C1539.26 1052.79 1539.24 1048.34 1539.41 1044.15C1539.49 1042.19 1538.36 1040.04 1541.45 1040.62Z" fill="#F4AF01"/>
<path d="M12.3502 877.174C12.9247 877.259 14.2654 877.004 14.393 877.174C14.8612 877.792 14.2654 889.946 14.393 892.501C13.8185 892.416 12.4778 892.671 12.3502 892.501C11.882 891.883 12.3502 879.495 12.3502 877.174Z" fill="#F4AF01"/>
<path d="M23.5857 982.396C20.415 982.971 21.6918 980.8 21.5641 978.862C21.2449 974.69 21.6492 970.348 21.5641 967.091C24.4157 971.689 23.1176 977.5 23.607 982.418L23.5857 982.396Z" fill="#F4AF01"/>
<path d="M1535.32 1086.58C1534.66 1091.07 1534.51 1098.5 1529.19 1099.86C1530.26 1096.41 1531.58 1093.03 1532.79 1089.6C1533.36 1087.96 1532.58 1085.98 1535.32 1086.58Z" fill="#F4AF01"/>
<path d="M1504.68 1139.69C1504.47 1139.96 1504.55 1141.22 1503.72 1142.24C1501.76 1144.67 1497.83 1149.05 1494.46 1148.86C1497.4 1145.77 1500.34 1140.88 1504.68 1139.66V1139.69Z" fill="#F4AF01"/>
<path d="M15.4142 904.763C11.9669 905.87 12.9245 897.036 14.3928 894.545C14.4566 896.929 15.3291 901.186 15.4142 904.763Z" fill="#F4AF01"/>
<path d="M1529.19 1102.92C1528.21 1106.05 1526.68 1111.82 1523.06 1112.12C1523.79 1109.73 1526.87 1102.54 1529.19 1102.92Z" fill="#F4AF01"/>
<path d="M1544.51 1010.98C1544.43 1014.2 1545.88 1021.2 1542.47 1020.18C1542.37 1017.14 1541.28 1009.86 1544.51 1010.98Z" fill="#F4AF01"/>
<path d="M1521.02 1117.23C1520.28 1119.63 1520.98 1123.23 1516.94 1123.36C1517.08 1122.93 1516.68 1121.91 1516.98 1121.04C1517.08 1120.74 1520.3 1116.21 1521.02 1117.23Z" fill="#F4AF01"/>
<path d="M1538.39 1073.29C1538.22 1075.82 1538.88 1081.02 1535.32 1080.44C1535.68 1077.8 1535.94 1072.14 1538.39 1073.29Z" fill="#F4AF01"/>
<path d="M95.0867 1164.21C92.4905 1163.51 90.2987 1164.14 89.9795 1160.12C92.8097 1160.67 94.7249 1160.4 95.0867 1164.21Z" fill="#F4AF01"/>
<path d="M1553.71 898.632C1552.07 897.674 1552.03 893.523 1553.71 892.501C1553.67 893.906 1553.77 896.482 1553.71 898.632Z" fill="#F4AF01"/>
<path d="M1553.71 330.673C1552.07 329.715 1552.03 325.564 1553.71 324.542C1553.77 326.692 1553.64 329.395 1553.71 330.673Z" fill="#F4AF01"/>
<path d="M114.494 1173.4C116.665 1173.81 120.24 1173.4 119.602 1176.47C117.665 1175.89 114.409 1177.56 114.494 1173.4Z" fill="#F4AF01"/>
<path d="M1516.94 1124.38C1516.34 1126.85 1515.77 1128.23 1512.85 1128.47C1513.53 1126.02 1513.96 1124.62 1516.94 1124.38Z" fill="#F4AF01"/>
<path d="M1456.67 1173.4C1457.48 1176 1453.84 1175.96 1451.56 1176.47C1450.92 1173.3 1454.56 1173.92 1456.67 1173.4Z" fill="#F4AF01"/>
<path d="M1542.47 1024.27C1542.58 1025.84 1545.86 1029.99 1541.45 1029.38C1541.49 1027.74 1540.83 1025.14 1542.47 1024.27Z" fill="#F4AF01"/>
<path d="M1468.93 1167.27C1469.57 1170.47 1465.91 1169.81 1463.82 1170.34C1464.78 1168 1466.86 1167.87 1468.93 1167.27Z" fill="#F4AF01"/>
<path d="M1539.41 1060.03C1539.49 1061.29 1542.68 1064.65 1538.39 1064.12C1538.43 1062.78 1537.88 1060.73 1539.41 1060.03Z" fill="#F4AF01"/>
<path d="M1548.6 959.917C1548.69 961.152 1551.9 964.536 1547.58 964.004C1547.62 962.663 1547.07 960.619 1548.6 959.917Z" fill="#F4AF01"/>
<path d="M1462.8 1170.34C1463.44 1172.89 1460.8 1172.98 1458.71 1173.4C1458.1 1170.79 1460.71 1170.85 1462.8 1170.34Z" fill="#F4AF01"/>
<path d="M1474.04 1164.21C1474.1 1167.81 1471.89 1166.74 1469.95 1167.27C1470.67 1164.81 1472.44 1164.98 1474.04 1164.21Z" fill="#F4AF01"/>
<path d="M62.4008 1134.6C61.7198 1133.87 61.0388 1135.56 59.3364 1131.53C61.4006 1131.45 62.4859 1132.58 62.4008 1134.6Z" fill="#F4AF01"/>
<path d="M1510.81 1132.55C1509.02 1136.36 1509.45 1134.3 1507.74 1135.62C1507.66 1133.6 1508.74 1132.47 1510.81 1132.55Z" fill="#F4AF01"/>
<path d="M1448.5 1176.47C1446.78 1178.02 1450.67 1176.96 1445.43 1178.51C1444.97 1175.79 1446.07 1176.43 1448.5 1176.47Z" fill="#F4AF01"/>
<path d="M1523.06 1114.16C1522.45 1117.78 1522.51 1115.31 1521.02 1116.21C1520.79 1114.04 1520.89 1113.93 1523.06 1114.16Z" fill="#F4AF01"/>
<path d="M1482.21 1159.1C1482.04 1159.38 1482.57 1160.57 1482.08 1161.04C1481.63 1161.46 1480.44 1160.97 1480.16 1161.14C1479.78 1159.33 1480.42 1158.82 1482.21 1159.1Z" fill="#F4AF01"/>
<path d="M1541.45 1037.55L1540.43 1037.04L1541.45 1035.53C1541.45 1036.12 1541.45 1036.98 1541.45 1037.57V1037.55Z" fill="#F4AF01"/>
<path d="M1512.85 1129.49C1512.06 1133.09 1512.47 1130.55 1510.81 1131.53C1510.57 1129.36 1510.68 1129.25 1512.85 1129.49Z" fill="#F4AF01"/>
<path d="M1547.58 975.244L1546.56 974.733L1547.58 973.222C1547.58 973.882 1547.58 974.563 1547.58 975.265V975.244Z" fill="#F4AF01"/>
<path d="M1487.31 1155.01C1486.42 1155.97 1489.06 1155.67 1485.27 1157.06C1484.93 1155.1 1485.36 1154.67 1487.31 1155.01Z" fill="#F4AF01"/>
<path d="M63.4219 1135.62C65.5924 1135.39 65.6988 1135.49 65.4648 1137.66C64.1241 1136.47 64.188 1136.39 63.4219 1135.62Z" fill="#F4AF01"/>
<path d="M1506.72 1136.64C1506.55 1136.85 1507.04 1138.15 1506.61 1138.58C1506.17 1139.05 1504.89 1138.51 1504.68 1138.69C1504.44 1136.51 1504.55 1136.41 1506.72 1136.64Z" fill="#F4AF01"/>
<path d="M36.8642 174.383C36.9068 174.872 39.886 176.831 35.8428 176.426C35.9066 175.554 35.8641 174.638 36.8642 174.383Z" fill="#F4AF01"/>
<path d="M1491.4 1151.95C1490.65 1152.69 1491.83 1152.22 1489.36 1153.99C1489.1 1151.82 1489.23 1151.71 1491.4 1151.95Z" fill="#F4AF01"/>
<path d="M29.7144 206.058C29.8208 205.27 30.7358 205.1 30.7358 205.036L29.7144 206.058Z" fill="#F4AF01"/>
<path d="M1436.24 333.738C1440.14 328.438 1442.9 326.245 1450.01 327.629C1454.12 328.437 1456.37 334.93 1458.37 335.611C1461.12 336.548 1467.65 335.505 1471.35 335.909C1512.15 340.337 1531.58 379.207 1516.34 416.396C1514.72 420.355 1508.53 426.464 1507.96 428.444C1506.02 435.277 1511.45 445.069 1501.61 448.134C1491.78 451.2 1485.25 443.558 1480.8 435.745C1464.37 406.923 1451.44 373.076 1436.31 343.36L1436.24 333.717V333.738Z" fill="#F4AF01"/>
<path d="M1449.52 636.099C1447.92 633.098 1445.31 631.65 1444.86 630.075C1443.54 625.413 1445.39 619.602 1444.2 615.387C1443.58 613.215 1438.54 609.001 1436.88 606.361C1416.96 574.558 1434.22 531.814 1471.18 524.449C1477.23 523.235 1485.19 524.853 1489.68 523.533C1492.91 522.575 1496.8 514.72 1503.19 514.465C1508.66 514.252 1508.47 517.913 1511.21 520.361C1512.36 521.404 1512.49 521.298 1513.89 522.724C1514.55 527.812 1512.76 532.091 1511.02 536.689C1495.08 564.106 1483.72 599.102 1467.12 625.562C1463.12 631.927 1457.54 636.78 1449.56 636.099H1449.52Z" fill="#F4AF01"/>
<path d="M1479.14 445.09C1472.5 444.536 1464.74 445.899 1458.27 445.026C1443.6 443.089 1423.01 428.252 1417.39 414.394C1416.98 413.394 1413.94 404.389 1413.81 403.665C1413.09 399.301 1413.13 381.782 1413.81 377.269C1413.92 376.546 1415.51 376.78 1415.71 375.95C1417 370.458 1417.13 368.031 1420.05 362.986C1422.66 358.473 1431.16 349.958 1432.16 345.978C1435.01 351.448 1436.99 358.09 1439.58 363.582C1452.01 389.85 1466.5 415.607 1478.89 441.79C1479.42 442.897 1478.91 444.579 1479.14 445.069V445.09Z" fill="#F4AF01"/>
<path d="M1470.97 629.968C1474.14 624.327 1477.38 615.323 1480.44 609.299C1490.72 589.097 1509.51 557.401 1515.91 537.008C1520.13 538.775 1525.15 545.395 1527.58 549.354C1546.66 580.391 1527.24 624.774 1490.8 629.883C1484.65 630.735 1477.29 629.436 1470.97 629.968Z" fill="#F4AF01"/>
<path d="M1533 755.923C1539.83 761.458 1533.73 777.274 1523.49 775.933C1495.93 774.273 1464.99 778.551 1437.82 776.018C1433.01 775.571 1426.92 774.741 1426.16 769.355C1423.18 748.813 1440.05 755.157 1454.2 754.625C1474.38 753.858 1495.17 752.539 1515.49 753.518C1518.7 753.667 1531.51 754.689 1533.02 755.902L1533 755.923Z" fill="#8A4D00"/>
<path d="M1528.9 818.23C1534.87 822.594 1533.17 836.793 1524.55 838.304L1429.56 838.41C1417.88 836.835 1420.66 818.571 1430.69 816.974C1460.54 818.635 1493.06 814.569 1522.6 816.868C1524.34 816.996 1527.58 817.272 1528.9 818.23Z" fill="#8A4D00"/>
<path d="M1535.02 738.978C1533.26 741.043 1528.34 742.108 1525.66 742.363C1497.53 745.003 1465.33 740.298 1436.75 742.32C1423.79 742.193 1423.62 722.46 1435.69 720.821C1465.4 723.418 1500.68 717.5 1529.73 720.842C1538.47 721.842 1539.47 733.806 1535.02 738.957V738.978Z" fill="#8A4D00"/>
<path d="M1425.32 804.33C1421.75 799.2 1424.09 786.896 1431.58 786.215L1527.62 786.3C1536.58 789.876 1535.68 802.606 1527.89 806.948C1496.02 808.779 1463.65 807.14 1431.58 807.779C1429.99 807.779 1426.03 805.331 1425.32 804.33Z" fill="#8A4D00"/>
<path d="M1536.83 691.807C1537.41 692.466 1538.24 692.041 1538.45 693.765C1539.32 701.066 1538.66 707.58 1530.66 709.581C1501.23 707.282 1466.57 712.859 1437.77 709.645C1432.71 709.07 1429.6 707.495 1429.05 702.003C1428.01 691.679 1432.58 688.975 1441.86 688.209C1469.74 685.91 1500.51 689.933 1528.7 688.166C1532.87 688.528 1534.07 688.614 1536.81 691.807H1536.83Z" fill="#8A4D00"/>
<path d="M1429.86 849.841C1457.93 851.012 1488.65 847.414 1516.43 849.607C1518.62 849.777 1525.24 850.629 1526.72 851.565C1533.09 855.589 1530.51 871.384 1521.45 870.958L1427.62 871C1416.05 869.17 1418.86 850.756 1429.86 849.862V849.841Z" fill="#8A4D00"/>
<path d="M1425.73 881.474L1521.47 881.325C1531.9 883.156 1530.81 900.186 1521.47 901.633L1424.52 901.676C1416.88 900.249 1416.66 883.518 1425.73 881.496V881.474Z" fill="#8A4D00"/>
<path d="M1467.74 445.708C1497.78 445.708 1522.13 421.348 1522.13 391.298C1522.13 361.249 1497.78 336.889 1467.74 336.889C1437.7 336.889 1413.34 361.249 1413.34 391.298C1413.34 421.348 1437.7 445.708 1467.74 445.708Z" fill="#CFCEC4"/>
<path d="M1467.74 436.703C1492.8 436.703 1513.13 416.374 1513.13 391.298C1513.13 366.221 1492.8 345.893 1467.74 345.893C1442.67 345.893 1422.35 366.221 1422.35 391.298C1422.35 416.374 1442.67 436.703 1467.74 436.703Z" fill="#999999"/>
<path d="M1461.07 337.017C1458.95 331.397 1452.68 328.563 1447.06 330.686C1441.44 332.81 1438.61 339.087 1440.73 344.707L1479.84 448.253C1481.97 453.873 1488.24 456.707 1493.86 454.584C1499.48 452.46 1502.31 446.183 1500.19 440.563L1461.07 337.017Z" fill="#4C4A55"/>
<path d="M1455.6 334.541C1453.48 328.921 1447.2 326.087 1441.58 328.211C1435.96 330.334 1433.13 336.611 1435.25 342.231L1474.37 445.778C1476.49 451.398 1482.77 454.232 1488.38 452.108C1494 449.985 1496.83 443.708 1494.71 438.088L1455.6 334.541Z" fill="#B0B1AB"/>
<path d="M1479.08 628.308C1509.12 628.308 1533.47 603.948 1533.47 573.898C1533.47 543.848 1509.12 519.488 1479.08 519.488C1449.04 519.488 1424.69 543.848 1424.69 573.898C1424.69 603.948 1449.04 628.308 1479.08 628.308Z" fill="#CFCEC4"/>
<path d="M1479.08 619.303C1504.15 619.303 1524.47 598.974 1524.47 573.897C1524.47 548.821 1504.15 528.492 1479.08 528.492C1454.01 528.492 1433.69 548.821 1433.69 573.897C1433.69 598.974 1454.01 619.303 1479.08 619.303Z" fill="#999999"/>
<path d="M1514.93 532.445C1517.67 527.098 1515.56 520.543 1510.21 517.804C1504.87 515.066 1498.31 517.18 1495.57 522.527L1445.13 621.05C1442.39 626.397 1444.51 632.951 1449.85 635.69C1455.2 638.429 1461.75 636.314 1464.49 630.967L1514.93 532.445Z" fill="#4C4A55"/>
<path d="M1513.08 526.717C1515.82 521.37 1513.71 514.815 1508.36 512.077C1503.02 509.338 1496.47 511.453 1493.73 516.8L1443.28 615.322C1440.55 620.669 1442.66 627.224 1448.01 629.963C1453.35 632.701 1459.9 630.587 1462.64 625.239L1513.08 526.717Z" fill="#B0B1AB"/>
<path d="M1334.82 1081.17C1300.54 1106.22 1270.11 1106.65 1229.4 1111.08C883.151 1150.73 530.221 1151.54 184.527 1106.95C132.093 1100.67 88.2345 1057.01 81.0418 1004.11C60.8896 810.248 19.6701 342.678 111.834 180.897C131.731 159.333 162.225 144.687 191.592 142.665C548.905 116.141 909.219 114.949 1266.17 142.729C1367.7 154.054 1380.3 238.776 1385.17 324.052C1407.24 541.456 1400.53 761.734 1378.98 978.734C1376.44 1004.28 1374.95 1025.33 1361.72 1048.3C1357.65 1055.37 1340.93 1076.7 1334.82 1081.17ZM622.151 159.056C570.207 159.162 517.219 160.397 465.871 164.165C410.585 165.4 355.044 168.422 299.886 173.34C248.005 174.191 180.292 179.619 152.287 229.537C121.559 258.552 123.198 320.944 115.537 359.793C100.364 496.881 98.2148 635.715 108.365 772.974C124.538 955.957 95.5974 1080.57 326.954 1084.53C330.189 1086.77 334.487 1085.06 338.19 1085.55C338.722 1087.3 341.808 1086.47 343.297 1086.57C347.383 1087.28 351.362 1088.15 355.555 1087.6C365.152 1090.41 376.813 1089.43 387.219 1089.64C636.898 1115.95 898.388 1106.65 1150.75 1081.49C1195.59 1076.02 1235.91 1077.85 1273.83 1050.83C1341.25 1017.6 1335.61 920.472 1341.27 855.227C1349.04 741.32 1354.95 628.265 1349.42 514.549C1346.69 440.769 1343.46 360.815 1331.95 287.374C1323.2 219.064 1262.09 177.107 1196.2 176.448C1113.53 169.657 1029.13 162.824 945.949 162.143C922.392 159.226 897.217 162.057 873.426 161.121C874.001 158.034 871.873 159.141 869.894 159.077C837.995 159.354 806.309 157.523 774.346 158.056C723.891 159.099 671.883 156.055 622.151 159.077V159.056Z" fill="#FFE500"/>
</svg>
