<svg width="2179" height="1257" viewBox="0 0 2179 1257" fill="none" xmlns="http://www.w3.org/2000/svg">
<path d="M1907.35 143.896C1905.36 148.603 1902.79 153.071 1901.27 156.223C1890.51 168.607 1870.24 183.33 1854.86 179.772C1851.78 179.057 1848.91 177.628 1846.35 175.289C1842.14 171.086 1837.94 168.285 1836.54 164.082C1830.94 140.267 1826.73 117.854 1807.12 102.444C1795.91 92.6382 1774.9 103.845 1773.5 117.854C1770.7 143.069 1795.91 159.88 1816.93 173.888C1821.13 176.69 1822.53 182.293 1823.26 186.636C1823.85 190.068 1823.69 193.724 1822.53 197.703C1821.37 201.681 1819.81 205.646 1817.89 209.456C1813.9 221.798 1805.96 229.012 1796.03 232.794C1792.73 234.055 1790.35 234.994 1787.52 235.638C1774.89 236.927 1753.87 234.125 1756.68 253.737C1759.48 269.147 1773.49 278.953 1774.24 294.012C1774.58 298.088 1774.23 301.843 1773.49 306.017C1772.74 310.192 1771.34 314.016 1769.38 317.476C1767.42 320.936 1764.9 324.018 1761.93 326.736C1755.28 333.6 1745.47 337.803 1737.06 336.402C1714.65 335.001 1685.23 327.997 1669.82 347.609C1662.82 354.613 1668.42 367.221 1675.43 374.225C1682.43 379.829 1692.24 382.63 1702.04 381.229C1721.66 378.428 1737.06 367.221 1757.14 363.326C1759.7 363.481 1762.45 364.097 1765.03 365.386C1767.6 366.675 1769.98 368.622 1772.09 371.423C1781.89 385.432 1787.5 403.643 1781.92 418.352C1780.55 421.924 1778.68 425.791 1776.36 430.007C1768.08 444.955 1782.72 462.017 1798.97 456.722C1803.68 455.181 1807.96 454.046 1811.86 453.346C1835.11 451.286 1867.33 470.899 1861.73 494.713C1857.52 512.924 1832.31 521.33 1826.68 542.525C1825.99 545.929 1825.88 549.389 1826.54 552.863C1827.18 556.337 1828.58 559.839 1830.92 563.341C1841.43 578.513 1862.64 581.048 1876.72 570.934C1879.53 568.917 1882.05 566.381 1884.15 563.341C1893.96 546.531 1888.36 525.518 1885.56 507.307C1884.15 491.897 1900.97 486.294 1913.57 483.492C1926.18 482.091 1941.59 484.893 1948.45 496.857C1950.96 499.98 1953.26 503.216 1955.6 506.256C1962.6 515.362 1970.31 522.716 1983.62 519.915C2014.43 512.91 2001.83 480.691 2004.63 458.277C2006.03 448.471 2020.04 456.876 2026.83 459.538C2030.59 460.882 2033.68 462.69 2038.36 463.698C2043.03 464.707 2043.59 465.337 2045.59 466.472C2064.88 486.28 2088.69 511.496 2119.51 498.888C2136.32 493.284 2134.92 470.871 2126.52 456.862C2113.91 438.651 2091.5 435.849 2077.49 420.44C2076.09 417.638 2076.09 414.836 2074.2 411.348C2073.16 407.818 2072.37 404.246 2071.87 400.631C2071.37 397.017 2071.14 393.375 2071.24 389.705C2071.91 387.071 2073.16 384.648 2074.99 382.392C2080.5 375.626 2091.29 370.429 2107.77 366.044C2125.03 361.449 2126.49 337.537 2110.1 330.434C2105.41 328.403 2101.33 326.372 2097.88 324.313C2094.44 322.253 2091.57 319.858 2089.4 318.051C2080.65 300.652 2081.14 276.347 2094.52 262.24C2097.18 259.425 2097.97 259.13 2100.29 258.64C2123.73 264.944 2150.35 267.746 2168.56 249.535C2182.57 238.328 2179.76 217.315 2168.56 203.306C2161.55 196.302 2153.15 190.698 2143.34 190.698C2119.53 192.099 2102.72 210.311 2092.91 229.923C2091.51 234.125 2087.31 235.526 2082.73 236.058C2080.35 236.352 2075.83 235.736 2073 235.512C2041.08 234.125 2035.48 199.104 2022.87 176.69C2021.47 175.289 2018.67 173.888 2017.26 175.289C2006.06 187.897 1999.05 207.509 1978.04 201.905C1965.43 199.104 1954.23 190.698 1950.26 178.483C1949.14 175.387 1947.77 171.731 1947.32 168.215C1946.63 165.301 1945.96 162.163 1945.29 158.815C1944.63 155.453 1943.97 151.881 1943.31 148.084C1940.12 129.537 1914.71 126.567 1907.37 143.896H1907.35Z" fill="#FFE500"/>
<path d="M1736.18 37.3469C1746.5 37.3469 1754.86 28.9865 1754.86 18.6735C1754.86 8.3604 1746.5 0 1736.18 0C1725.87 0 1717.51 8.3604 1717.51 18.6735C1717.51 28.9865 1725.87 37.3469 1736.18 37.3469Z" fill="#FFE500"/>
<path d="M2105.41 431.339C2115.72 431.339 2124.08 422.979 2124.08 412.666C2124.08 402.353 2115.72 393.992 2105.41 393.992C2095.09 393.992 2086.73 402.353 2086.73 412.666C2086.73 422.979 2095.09 431.339 2105.41 431.339Z" fill="#FFE500"/>
<path d="M1897.34 550.636C1907.65 550.636 1916.01 542.276 1916.01 531.963C1916.01 521.649 1907.65 513.289 1897.34 513.289C1887.02 513.289 1878.66 521.649 1878.66 531.963C1878.66 542.276 1887.02 550.636 1897.34 550.636Z" fill="#FFE500"/>
<path d="M2105.41 494.168C2125.56 494.168 2141.9 477.83 2141.9 457.676C2141.9 437.522 2125.56 421.184 2105.41 421.184C2085.25 421.184 2068.92 437.522 2068.92 457.676C2068.92 477.83 2085.25 494.168 2105.41 494.168Z" fill="#FFE500"/>
<path d="M2135.39 119.015C2141.62 119.015 2146.68 113.96 2146.68 107.725C2146.68 101.489 2141.62 96.4336 2135.39 96.4336C2129.15 96.4336 2124.09 101.489 2124.09 107.725C2124.09 113.96 2129.15 119.015 2135.39 119.015Z" fill="#FFE500"/>
<path d="M1595.89 330.072C1607.42 330.072 1616.77 320.72 1616.77 309.185C1616.77 297.649 1607.42 288.298 1595.89 288.298C1584.35 288.298 1575 297.649 1575 309.185C1575 320.72 1584.35 330.072 1595.89 330.072Z" fill="#FFE500"/>
<path d="M1637.14 350.536C1644.1 350.536 1649.74 344.898 1649.74 337.942C1649.74 330.987 1644.1 325.349 1637.14 325.349C1630.19 325.349 1624.55 330.987 1624.55 337.942C1624.55 344.898 1630.19 350.536 1637.14 350.536Z" fill="#FFE500"/>
<path d="M471.994 641.355C469.169 648.04 465.509 654.386 463.36 658.862C448.081 676.449 419.294 697.358 397.45 692.305C393.073 691.29 388.995 689.261 385.354 685.939C379.386 679.97 373.417 675.991 371.428 670.023C363.47 636.203 357.502 604.371 329.649 582.488C313.734 568.561 283.892 584.477 281.903 604.371C277.924 640.181 313.734 664.055 343.576 683.949C349.544 687.928 351.533 695.886 352.568 702.053C353.403 706.927 353.185 712.12 351.533 717.77C349.882 723.42 347.674 729.05 344.948 734.461C339.278 751.988 327.998 762.234 313.893 767.605C309.218 769.396 305.836 770.729 301.817 771.644C283.872 773.474 254.031 769.495 258.01 797.347C261.988 819.231 281.883 833.157 282.957 854.544C283.435 860.333 282.937 865.665 281.883 871.594C280.828 877.522 278.839 882.953 276.054 887.867C273.269 892.781 269.688 897.158 265.47 901.017C256.02 910.766 242.094 916.734 230.157 914.745C198.326 912.755 156.548 902.808 134.664 930.66C124.717 940.607 132.675 958.512 142.622 968.46C152.569 976.417 166.495 980.396 180.421 978.407C208.273 974.428 230.157 958.512 258.666 952.982C262.307 953.201 266.206 954.076 269.867 955.906C273.527 957.736 276.909 960.502 279.893 964.481C293.82 984.375 301.777 1010.24 293.859 1031.13C291.91 1036.2 289.264 1041.69 285.961 1047.68C274.204 1068.91 294.993 1093.14 318.071 1085.62C324.755 1083.43 330.843 1081.82 336.374 1080.82C369.399 1077.9 415.156 1105.75 407.198 1139.57C401.23 1165.43 365.42 1177.37 357.422 1207.47C356.447 1212.31 356.288 1217.22 357.223 1222.15C358.138 1227.09 360.128 1232.06 363.45 1237.03C378.371 1258.58 408.491 1262.18 428.485 1247.82C432.484 1244.95 436.065 1241.35 439.049 1237.03C452.975 1213.16 445.017 1183.32 441.038 1157.46C439.049 1135.57 462.922 1127.62 480.827 1123.64C498.732 1121.65 520.616 1125.63 530.364 1142.62C533.926 1147.05 537.188 1151.65 540.511 1155.96C550.458 1168.9 561.4 1179.34 580.299 1175.36C624.067 1165.41 606.162 1119.66 610.141 1087.83C612.131 1073.9 632.025 1085.84 641.674 1089.62C647.006 1091.53 651.402 1094.09 658.047 1095.53C664.672 1096.96 665.468 1097.85 668.312 1099.46C695.707 1127.6 729.528 1163.41 773.295 1145.5C797.169 1137.54 795.179 1105.71 783.243 1085.82C765.338 1059.95 733.507 1055.98 713.612 1034.09C711.623 1030.11 711.623 1026.13 708.937 1021.18C707.465 1016.17 706.351 1011.09 705.634 1005.96C704.918 1000.83 704.6 995.655 704.739 990.443C705.694 986.703 707.465 983.261 710.071 980.058C717.889 970.449 733.208 963.068 756.624 956.841C781.134 950.316 783.203 916.356 759.926 906.27C753.262 903.385 747.472 900.5 742.578 897.576C737.684 894.651 733.606 891.249 730.522 888.683C718.108 863.974 718.805 829.457 737.804 809.423C741.584 805.425 742.698 805.007 746 804.311C779.284 813.263 817.083 817.242 842.946 791.379C862.84 775.464 858.861 745.622 842.946 725.727C832.999 715.78 821.062 707.822 807.136 707.822C773.315 709.812 749.442 735.675 735.516 763.527C733.526 769.495 727.558 771.485 721.053 772.241C717.671 772.658 711.265 771.783 707.246 771.465C661.906 769.495 653.949 719.759 636.044 687.928C634.054 685.939 630.075 683.949 628.086 685.939C612.17 703.844 602.223 731.696 572.382 723.738C554.477 719.759 538.561 707.822 532.931 690.475C531.339 686.078 529.39 680.885 528.753 675.892C527.778 671.754 526.823 667.298 525.868 662.543C524.933 657.768 523.998 652.695 523.063 647.304C518.527 620.963 482.439 616.746 472.014 641.355H471.994Z" fill="#62C6FF"/>
<path d="M228.905 490.039C243.551 490.039 255.424 478.165 255.424 463.519C255.424 448.873 243.551 437 228.905 437C214.259 437 202.386 448.873 202.386 463.519C202.386 478.165 214.259 490.039 228.905 490.039Z" fill="#62C6FF"/>
<path d="M753.263 1049.57C767.909 1049.57 779.782 1037.7 779.782 1023.05C779.782 1008.41 767.909 996.532 753.263 996.532C738.617 996.532 726.744 1008.41 726.744 1023.05C726.744 1037.7 738.617 1049.57 753.263 1049.57Z" fill="#62C6FF"/>
<path d="M457.77 1218.99C472.416 1218.99 484.29 1207.12 484.29 1192.47C484.29 1177.83 472.416 1165.95 457.77 1165.95C443.124 1165.95 431.251 1177.83 431.251 1192.47C431.251 1207.12 443.124 1218.99 457.77 1218.99Z" fill="#62C6FF"/>
<path d="M753.263 1138.8C781.885 1138.8 805.088 1115.59 805.088 1086.97C805.088 1058.35 781.885 1035.15 753.263 1035.15C724.641 1035.15 701.438 1058.35 701.438 1086.97C701.438 1115.59 724.641 1138.8 753.263 1138.8Z" fill="#62C6FF"/>
<path d="M795.837 606.022C804.693 606.022 811.872 598.843 811.872 589.987C811.872 581.131 804.693 573.952 795.837 573.952C786.981 573.952 779.802 581.131 779.802 589.987C779.802 598.843 786.981 606.022 795.837 606.022Z" fill="#62C6FF"/>
<path d="M29.6626 905.754C46.0448 905.754 59.3252 892.474 59.3252 876.091C59.3252 859.709 46.0448 846.429 29.6626 846.429C13.2804 846.429 0 859.709 0 876.091C0 892.474 13.2804 905.754 29.6626 905.754Z" fill="#62C6FF"/>
<path d="M88.2518 934.817C98.1295 934.817 106.137 926.81 106.137 916.932C106.137 907.054 98.1295 899.047 88.2518 899.047C78.3741 899.047 70.3667 907.054 70.3667 916.932C70.3667 926.81 78.3741 934.817 88.2518 934.817Z" fill="#62C6FF"/>
</svg>
