<svg width="680" height="680" viewBox="0 0 680 680" fill="none" xmlns="http://www.w3.org/2000/svg">
<path d="M44 0V680" stroke="url(#paint0_linear_542_7027)" stroke-linejoin="round"/>
<path d="M0 41L680 41" stroke="url(#paint1_linear_542_7027)" stroke-linejoin="round"/>
<path d="M0 85L680 85" stroke="url(#paint2_linear_542_7027)" stroke-linejoin="round"/>
<path d="M0 129L680 129" stroke="url(#paint3_linear_542_7027)" stroke-linejoin="round"/>
<path d="M0 172L680 172" stroke="url(#paint4_linear_542_7027)" stroke-linejoin="round"/>
<path d="M0 216L680 216" stroke="url(#paint5_linear_542_7027)" stroke-linejoin="round"/>
<path d="M0 260L568 260" stroke="url(#paint6_linear_542_7027)" stroke-linejoin="round"/>
<path d="M0 303L553 303" stroke="url(#paint7_linear_542_7027)" stroke-linejoin="round"/>
<path d="M0 347L481 347" stroke="url(#paint8_linear_542_7027)" stroke-linejoin="round"/>
<path d="M0 391L531 391" stroke="url(#paint9_linear_542_7027)" stroke-linejoin="round"/>
<path d="M0 435L481 435" stroke="url(#paint10_linear_542_7027)" stroke-linejoin="round"/>
<path d="M0 478L400 478" stroke="url(#paint11_linear_542_7027)" stroke-linejoin="round"/>
<path d="M0 522L350 522" stroke="url(#paint12_linear_542_7027)" stroke-linejoin="round"/>
<path d="M87 0V572" stroke="url(#paint13_linear_542_7027)" stroke-linejoin="round"/>
<path d="M131 0L131 551" stroke="url(#paint14_linear_542_7027)" stroke-linejoin="round"/>
<path d="M175 0V478" stroke="url(#paint15_linear_542_7027)" stroke-linejoin="round"/>
<path d="M219 0V572" stroke="url(#paint16_linear_542_7027)" stroke-linejoin="round"/>
<path d="M262 0V409" stroke="url(#paint17_linear_542_7027)" stroke-linejoin="round"/>
<path d="M306 0V435" stroke="url(#paint18_linear_542_7027)" stroke-linejoin="round"/>
<path d="M350 0V478" stroke="url(#paint19_linear_542_7027)" stroke-linejoin="round"/>
<path d="M394 0V359" stroke="url(#paint20_linear_542_7027)" stroke-linejoin="round"/>
<path d="M437 0V250" stroke="url(#paint21_linear_542_7027)" stroke-linejoin="round"/>
<path d="M481 0V163" stroke="url(#paint22_linear_542_7027)" stroke-linejoin="round"/>
<defs>
<linearGradient id="paint0_linear_542_7027" x1="44.5" y1="0" x2="44.5" y2="680" gradientUnits="userSpaceOnUse">
<stop offset="0.538462" stop-color="#FF8C00"/>
<stop offset="1" stop-color="#FFF5E8"/>
</linearGradient>
<linearGradient id="paint1_linear_542_7027" x1="5.96242e-09" y1="40.5" x2="680" y2="40.5" gradientUnits="userSpaceOnUse">
<stop offset="0.538462" stop-color="#FF8C00"/>
<stop offset="1" stop-color="#FFF5E8"/>
</linearGradient>
<linearGradient id="paint2_linear_542_7027" x1="5.96242e-09" y1="84.5" x2="680" y2="84.5" gradientUnits="userSpaceOnUse">
<stop offset="0.538462" stop-color="#FF8C00"/>
<stop offset="1" stop-color="#FFF5E8"/>
</linearGradient>
<linearGradient id="paint3_linear_542_7027" x1="5.96242e-09" y1="128.5" x2="680" y2="128.5" gradientUnits="userSpaceOnUse">
<stop offset="0.538462" stop-color="#FF8C00"/>
<stop offset="1" stop-color="#FFF5E8"/>
</linearGradient>
<linearGradient id="paint4_linear_542_7027" x1="5.96242e-09" y1="171.5" x2="680" y2="171.5" gradientUnits="userSpaceOnUse">
<stop offset="0.538462" stop-color="#FF8C00"/>
<stop offset="1" stop-color="#FFF5E8"/>
</linearGradient>
<linearGradient id="paint5_linear_542_7027" x1="5.96242e-09" y1="215.5" x2="680" y2="215.5" gradientUnits="userSpaceOnUse">
<stop offset="0.538462" stop-color="#FF8C00"/>
<stop offset="1" stop-color="#FFF5E8"/>
</linearGradient>
<linearGradient id="paint6_linear_542_7027" x1="5.96242e-09" y1="259.5" x2="568" y2="259.5" gradientUnits="userSpaceOnUse">
<stop offset="0.538462" stop-color="#FF8C00"/>
<stop offset="1" stop-color="#FFF5E8"/>
</linearGradient>
<linearGradient id="paint7_linear_542_7027" x1="5.96242e-09" y1="302.5" x2="553" y2="302.5" gradientUnits="userSpaceOnUse">
<stop offset="0.538462" stop-color="#FF8C00"/>
<stop offset="1" stop-color="#FFF5E8"/>
</linearGradient>
<linearGradient id="paint8_linear_542_7027" x1="5.96243e-09" y1="346.5" x2="481" y2="346.5" gradientUnits="userSpaceOnUse">
<stop offset="0.538462" stop-color="#FF8C00"/>
<stop offset="1" stop-color="#FFF5E8"/>
</linearGradient>
<linearGradient id="paint9_linear_542_7027" x1="5.96242e-09" y1="390.5" x2="531" y2="390.5" gradientUnits="userSpaceOnUse">
<stop offset="0.538462" stop-color="#FF8C00"/>
<stop offset="1" stop-color="#FFF5E8"/>
</linearGradient>
<linearGradient id="paint10_linear_542_7027" x1="5.96243e-09" y1="434.5" x2="481" y2="434.5" gradientUnits="userSpaceOnUse">
<stop offset="0.538462" stop-color="#FF8C00"/>
<stop offset="1" stop-color="#FFF5E8"/>
</linearGradient>
<linearGradient id="paint11_linear_542_7027" x1="5.96243e-09" y1="477.5" x2="400" y2="477.5" gradientUnits="userSpaceOnUse">
<stop offset="0.538462" stop-color="#FF8C00"/>
<stop offset="1" stop-color="#FFF5E8"/>
</linearGradient>
<linearGradient id="paint12_linear_542_7027" x1="5.96243e-09" y1="521.5" x2="350" y2="521.5" gradientUnits="userSpaceOnUse">
<stop offset="0.538462" stop-color="#FF8C00"/>
<stop offset="1" stop-color="#FFF5E8"/>
</linearGradient>
<linearGradient id="paint13_linear_542_7027" x1="87.5" y1="0" x2="87.5" y2="680.015" gradientUnits="userSpaceOnUse">
<stop offset="0.538462" stop-color="#FF8C00"/>
<stop offset="1" stop-color="#FFF5E8"/>
</linearGradient>
<linearGradient id="paint14_linear_542_7027" x1="131.5" y1="2.18557e-08" x2="131.5" y2="551" gradientUnits="userSpaceOnUse">
<stop offset="0.538462" stop-color="#FF8C00"/>
<stop offset="1" stop-color="#FFF5E8"/>
</linearGradient>
<linearGradient id="paint15_linear_542_7027" x1="175.5" y1="0" x2="175.5" y2="478" gradientUnits="userSpaceOnUse">
<stop offset="0.538462" stop-color="#FF8C00"/>
<stop offset="1" stop-color="#FFF5E8"/>
</linearGradient>
<linearGradient id="paint16_linear_542_7027" x1="219.5" y1="0" x2="219.5" y2="572" gradientUnits="userSpaceOnUse">
<stop offset="0.538462" stop-color="#FF8C00"/>
<stop offset="1" stop-color="#FFF5E8"/>
</linearGradient>
<linearGradient id="paint17_linear_542_7027" x1="262.5" y1="0" x2="262.5" y2="409" gradientUnits="userSpaceOnUse">
<stop offset="0.538462" stop-color="#FF8C00"/>
<stop offset="1" stop-color="#FFF5E8"/>
</linearGradient>
<linearGradient id="paint18_linear_542_7027" x1="306.5" y1="0" x2="306.5" y2="435" gradientUnits="userSpaceOnUse">
<stop offset="0.538462" stop-color="#FF8C00"/>
<stop offset="1" stop-color="#FFF5E8"/>
</linearGradient>
<linearGradient id="paint19_linear_542_7027" x1="350.5" y1="0" x2="350.5" y2="478" gradientUnits="userSpaceOnUse">
<stop offset="0.538462" stop-color="#FF8C00"/>
<stop offset="1" stop-color="#FFF5E8"/>
</linearGradient>
<linearGradient id="paint20_linear_542_7027" x1="394.5" y1="0" x2="394.5" y2="359" gradientUnits="userSpaceOnUse">
<stop offset="0.538462" stop-color="#FF8C00"/>
<stop offset="1" stop-color="#FFF5E8"/>
</linearGradient>
<linearGradient id="paint21_linear_542_7027" x1="437.5" y1="0" x2="437.5" y2="250" gradientUnits="userSpaceOnUse">
<stop offset="0.538462" stop-color="#FF8C00"/>
<stop offset="1" stop-color="#FFF5E8"/>
</linearGradient>
<linearGradient id="paint22_linear_542_7027" x1="481.5" y1="0" x2="481.5" y2="163" gradientUnits="userSpaceOnUse">
<stop offset="0.538462" stop-color="#FF8C00"/>
<stop offset="1" stop-color="#FFF5E8"/>
</linearGradient>
</defs>
</svg>
