<svg width="223" height="58" viewBox="0 0 223 58" fill="none" xmlns="http://www.w3.org/2000/svg">
<path d="M80.8575 45.5681L86.2667 11.0848L98.7506 38.6567L111.485 11.0256L116.555 45.5681H112.841L109.761 22.8358L98.6916 46.9445L87.7701 22.8358L84.557 45.5681H80.8428H80.8575Z" fill="#595757"/>
<path d="M130.808 15.0511C132.178 15.0511 133.299 16.1759 133.299 17.5523C133.299 18.9287 132.178 20.0534 130.808 20.0534C129.437 20.0534 128.317 18.9287 128.317 17.5523C128.317 16.1759 129.437 15.0511 130.808 15.0511ZM132.562 25.2333V45.5681H129.054V25.2333H132.562Z" fill="#595757"/>
<path d="M148.568 9.85645V45.5681H145.06V9.85645H148.568Z" fill="#595757"/>
<path d="M162.806 15.0511C164.177 15.0511 165.297 16.1759 165.297 17.5523C165.297 18.9287 164.177 20.0534 162.806 20.0534C161.435 20.0534 160.315 18.9287 160.315 17.5523C160.315 16.1759 161.435 15.0511 162.806 15.0511ZM164.575 25.2333V45.5681H161.067V25.2333H164.575Z" fill="#595757"/>
<path d="M181.156 42.3418H195.202V45.5681H174.125L188.761 28.4745H176.955V25.2481H195.792L181.156 42.3418Z" fill="#595757"/>
<path d="M222.823 40.3734C222.233 41.4982 221.364 42.7266 220.332 43.6589C218.475 45.3313 216.19 46.1601 213.596 46.1601C208.718 46.1601 203.603 43.067 203.603 35.5339C203.603 29.466 207.317 24.7597 213.405 24.7597C217.355 24.7597 219.846 26.7133 221.069 28.4893C222.336 30.3096 223.073 33.4324 222.97 36.1259H207.214C207.259 40.3438 210.147 43.0374 213.655 43.0374C215.321 43.0374 216.632 42.549 217.797 41.5722C218.725 40.7878 219.462 39.7666 219.89 38.775L222.823 40.3882V40.3734ZM219.359 33.1808C218.77 29.9988 216.382 27.8973 213.405 27.8973C210.427 27.8973 207.995 30.1468 207.45 33.1808H219.359Z" fill="#595757"/>
<path d="M62.7878 28.9482C62.7878 28.9482 62.7878 28.8742 62.7878 28.8446C62.7878 28.815 62.7878 28.7854 62.7731 28.7558C62.7731 28.7262 62.7584 28.6966 62.7436 28.667C62.7436 28.6374 62.7289 28.6078 62.7141 28.5782C62.7141 28.5486 62.6847 28.519 62.6699 28.4894C62.6552 28.4598 62.6404 28.4302 62.6257 28.4154C62.611 28.3858 62.5815 28.371 62.5668 28.3414C62.5373 28.3118 62.5225 28.297 62.4931 28.2674C62.4931 28.2674 62.4783 28.2378 62.4636 28.2378C62.4636 28.2378 62.4341 28.223 62.4194 28.2082C62.3899 28.1934 62.3604 28.1638 62.3309 28.149C62.3015 28.1342 62.272 28.1194 62.2425 28.1046C62.213 28.1046 62.1835 28.075 62.1541 28.075C62.1246 28.075 62.0951 28.0602 62.0656 28.0454C62.0361 28.0454 62.0067 28.0454 61.9772 28.0306C61.9477 28.0306 61.9035 28.0306 61.874 28.0306C61.874 28.0306 61.8445 28.0306 61.8298 28.0306C61.8151 28.0306 61.8003 28.0306 61.7856 28.0306C61.7561 28.0306 61.7119 28.0306 61.6824 28.0306C61.6529 28.0306 61.6235 28.0306 61.594 28.0454C61.5645 28.0454 61.535 28.0602 61.4908 28.075C61.4613 28.075 61.4319 28.0898 61.4024 28.1046C61.3729 28.1046 61.3434 28.1342 61.3139 28.149C61.2845 28.1638 61.255 28.1786 61.2402 28.1934C61.2108 28.2082 61.196 28.2378 61.1666 28.2526C61.1371 28.2822 61.1223 28.297 61.0929 28.3266C61.0929 28.3266 61.0781 28.3414 61.0634 28.3562C54.534 36.3184 46.236 40.1368 37.0242 39.3672C30.6717 38.8344 24.614 36.1853 19.6175 32.6185C20.9882 24.8931 19.2048 16.4869 14.6063 10.2414C19.4996 5.15029 26.3532 1.98316 33.9437 1.98316C34.4891 1.98316 34.9313 1.53917 34.9313 0.99158C34.9313 0.443991 34.4891 0 33.9437 0C25.8963 0 18.6153 3.32993 13.3682 8.67262C10.1109 4.7803 7.51685 3.44833 5.65975 4.7211C2.81514 6.67466 3.69947 14.4445 6.36722 20.3644C5.51236 23.0875 5.05545 25.9883 5.05545 28.9926C5.05545 35.1345 6.97151 40.8324 10.2288 45.5239C7.60529 47.4922 4.48063 48.5282 0.987508 48.5282C0.442168 48.5282 0 48.9722 0 49.5198C0 50.0674 0.442168 50.5114 0.987508 50.5114C4.87859 50.5114 8.44541 49.3126 11.4079 47.0926C16.6992 53.7229 24.8351 57.9852 33.9437 57.9852C49.8765 57.9852 62.8321 44.9763 62.8321 28.9778C62.8321 28.963 62.8321 28.9482 62.8321 28.9334L62.7878 28.9482ZM17.7604 31.2422C14.0462 28.2674 11.0395 24.8191 9.1234 21.4744C8.88757 21.0748 8.66649 20.6604 8.46015 20.2312C9.53609 17.1084 11.1574 14.2373 13.2208 11.7362C17.0529 17.1676 18.6447 24.4639 17.7604 31.2274V31.2422ZM6.75043 6.34907C6.8536 6.27507 6.98625 6.23067 7.16312 6.23067C8.00324 6.23067 9.60978 7.23705 11.9975 10.123C10.0962 12.3429 8.53384 14.8441 7.36946 17.5672C5.57131 12.4613 5.46814 7.20745 6.75043 6.33427V6.34907ZM7.01573 28.9926C7.01573 26.9206 7.25155 24.8931 7.70846 22.9395C9.87508 26.5359 13.1913 30.295 17.3772 33.4917C16.9645 35.3417 16.3749 37.1176 15.5643 38.79C14.5326 40.936 13.2356 42.7563 11.7322 44.2215C8.76966 39.8852 7.03047 34.6313 7.03047 28.9778L7.01573 28.9926ZM33.9143 56.002C25.4099 56.002 17.8341 52.0209 12.8966 45.8199C14.6652 44.1623 16.1686 42.1051 17.333 39.6632C18.0847 38.0944 18.6742 36.4516 19.1164 34.7645C24.1571 38.2276 30.2295 40.8028 36.8326 41.3503C43.2293 41.8831 52.3527 40.5512 60.6654 31.7749C59.2652 45.3611 47.7983 56.002 33.9143 56.002Z" fill="#EF821D"/>
<path d="M47.533 8.73181C48.8354 8.73181 49.8913 7.67164 49.8913 6.36386C49.8913 5.05608 48.8354 3.99591 47.533 3.99591C46.2306 3.99591 45.1748 5.05608 45.1748 6.36386C45.1748 7.67164 46.2306 8.73181 47.533 8.73181Z" fill="#EF821D"/>
<path d="M56.7891 18.9436C58.0915 18.9436 59.1474 17.8834 59.1474 16.5757C59.1474 15.2679 58.0915 14.2077 56.7891 14.2077C55.4867 14.2077 54.4309 15.2679 54.4309 16.5757C54.4309 17.8834 55.4867 18.9436 56.7891 18.9436Z" fill="#EF821D"/>
</svg>
