<svg width="46" height="44" viewBox="0 0 46 44" fill="none" xmlns="http://www.w3.org/2000/svg">
<path d="M45.9978 18.664C45.9978 8.37277 35.6808 0.00012207 22.9989 0.00012207C10.3171 0.00012207 0 8.37277 0 18.664C0 27.8903 8.18295 35.6162 19.2351 37.0778C19.9831 37.2394 21.0028 37.5714 21.2614 38.2117C21.4943 38.7937 21.4123 39.7034 21.3369 40.2919C21.3369 40.2919 21.0674 41.9151 21.0092 42.26C20.9079 42.8421 20.5479 44.5343 23.0011 43.4995C25.4564 42.4648 36.2456 35.7003 41.07 30.1473C44.4026 26.4912 46 22.7835 46 18.664H45.9978Z" fill="#FF8C00"/>
<path d="M38.3478 24.6076H31.8873C31.6437 24.6076 31.4475 24.4115 31.4475 24.1679V24.1614V14.1418V14.131C31.4475 13.8875 31.6437 13.6913 31.8873 13.6913H38.3478C38.5893 13.6913 38.7876 13.8896 38.7876 14.131V15.7629C38.7876 16.0065 38.5914 16.2026 38.3478 16.2026H33.9567V17.897H38.3478C38.5893 17.897 38.7876 18.0953 38.7876 18.3368V19.9686C38.7876 20.2122 38.5914 20.4084 38.3478 20.4084H33.9567V22.1027H38.3478C38.5893 22.1027 38.7876 22.3011 38.7876 22.5425V24.1743C38.7876 24.4179 38.5914 24.6141 38.3478 24.6141V24.6076Z" fill="white"/>
<path d="M14.4454 24.6076C14.6869 24.6076 14.8852 24.4114 14.8852 24.1678V22.536C14.8852 22.2946 14.6869 22.0962 14.4454 22.0962H10.0543V14.1288C10.0543 13.8874 9.85601 13.6891 9.61457 13.6891H7.98273C7.73914 13.6891 7.54297 13.8853 7.54297 14.1288V24.1592V24.1678C7.54297 24.4114 7.73914 24.6076 7.98273 24.6076H14.4433H14.4454Z" fill="white"/>
<path d="M18.3357 13.6913H16.706C16.4631 13.6913 16.2662 13.8882 16.2662 14.131V24.1679C16.2662 24.4107 16.4631 24.6076 16.706 24.6076H18.3357C18.5786 24.6076 18.7754 24.4107 18.7754 24.1679V14.131C18.7754 13.8882 18.5786 13.6913 18.3357 13.6913Z" fill="white"/>
<path d="M29.4399 13.6913H27.8081C27.5645 13.6913 27.3683 13.8875 27.3683 14.131V20.0915L22.7767 13.8896C22.7659 13.8745 22.753 13.8594 22.7422 13.8443C22.7422 13.8443 22.7422 13.8443 22.7401 13.8422C22.7314 13.8336 22.7228 13.8228 22.7142 13.8142C22.712 13.812 22.7077 13.8098 22.7056 13.8077C22.6969 13.8012 22.6905 13.7948 22.6818 13.7883C22.6775 13.7861 22.6732 13.7818 22.6689 13.7797C22.6624 13.7732 22.6538 13.7689 22.6452 13.7646C22.6409 13.7624 22.6366 13.7581 22.6323 13.756C22.6236 13.7516 22.6172 13.7473 22.6086 13.743C22.6042 13.7409 22.5999 13.7387 22.5956 13.7366C22.587 13.7322 22.5784 13.7279 22.5698 13.7258C22.5654 13.7258 22.5611 13.7215 22.5547 13.7215C22.546 13.7193 22.5374 13.715 22.5288 13.7128C22.5245 13.7128 22.518 13.7107 22.5137 13.7085C22.5051 13.7085 22.4965 13.7042 22.4878 13.7021C22.4814 13.7021 22.4749 13.7021 22.4684 13.6999C22.4598 13.6999 22.4533 13.6978 22.4447 13.6978C22.4361 13.6978 22.4296 13.6978 22.421 13.6978C22.4167 13.6978 22.4102 13.6978 22.4059 13.6978H20.7849C20.5434 13.6978 20.3451 13.8939 20.3451 14.1375V24.1743C20.3451 24.4158 20.5413 24.6141 20.7849 24.6141H22.4167C22.6603 24.6141 22.8565 24.4179 22.8565 24.1743V18.2139L27.4545 24.4244C27.4869 24.4697 27.5257 24.5063 27.5688 24.5343C27.5688 24.5343 27.5731 24.5365 27.5731 24.5387C27.5817 24.5451 27.5903 24.5494 27.6011 24.5559C27.6054 24.5581 27.6097 24.5602 27.614 24.5624C27.6205 24.5667 27.6291 24.5688 27.6356 24.5731C27.6421 24.5775 27.6507 24.5796 27.6572 24.5818C27.6615 24.5818 27.6658 24.5861 27.6701 24.5861C27.6809 24.5904 27.6895 24.5925 27.7003 24.5947C27.7003 24.5947 27.7046 24.5947 27.7067 24.5947C27.7434 24.6033 27.7822 24.6098 27.821 24.6098H29.4421C29.6835 24.6098 29.8818 24.4136 29.8818 24.17V14.1332C29.8818 13.8918 29.6856 13.6934 29.4421 13.6934L29.4399 13.6913Z" fill="white"/>
</svg>
