<svg width="80" height="80" viewBox="0 0 80 80" fill="none" xmlns="http://www.w3.org/2000/svg">
<circle cx="40" cy="40" r="40" fill="#FF8C00"/>
<path d="M59.3366 38.7564C59.3366 30.0684 50.6267 23 39.9204 23C29.2142 23 20.5043 30.0684 20.5043 38.7564C20.5043 46.5454 27.4125 53.0678 36.7429 54.3017C37.3744 54.4382 38.2352 54.7185 38.4536 55.259C38.6502 55.7503 38.581 56.5183 38.5173 57.0151C38.5173 57.0151 38.2898 58.3855 38.2407 58.6767C38.1552 59.168 37.8512 60.5966 39.9223 59.7231C41.9951 58.8496 51.1035 53.1388 55.1764 48.4508C57.9899 45.3643 59.3384 42.2342 59.3384 38.7564H59.3366Z" fill="white"/>
<path d="M52.8787 43.774H47.4246C47.219 43.774 47.0533 43.6084 47.0533 43.4028V43.3973V34.9386V34.9295C47.0533 34.7238 47.219 34.5582 47.4246 34.5582H52.8787C53.0826 34.5582 53.25 34.7257 53.25 34.9295V36.3071C53.25 36.5128 53.0844 36.6784 52.8787 36.6784H49.1717V38.1088H52.8787C53.0826 38.1088 53.25 38.2762 53.25 38.48V39.8577C53.25 40.0633 53.0844 40.2289 52.8787 40.2289H49.1717V41.6593H52.8787C53.0826 41.6593 53.25 41.8268 53.25 42.0306V43.4082C53.25 43.6139 53.0844 43.7795 52.8787 43.7795V43.774Z" fill="#FF8C00"/>
<path d="M32.6993 43.774C32.9031 43.774 33.0705 43.6084 33.0705 43.4028V42.0251C33.0705 41.8213 32.9031 41.6539 32.6993 41.6539H28.9922V34.9276C28.9922 34.7238 28.8248 34.5564 28.621 34.5564H27.2433C27.0377 34.5564 26.8721 34.722 26.8721 34.9276V43.3955V43.4028C26.8721 43.6084 27.0377 43.774 27.2433 43.774H32.6975H32.6993Z" fill="#FF8C00"/>
<path d="M35.9839 34.5582H34.6081C34.403 34.5582 34.2368 34.7244 34.2368 34.9295V43.4028C34.2368 43.6078 34.403 43.774 34.6081 43.774H35.9839C36.1889 43.774 36.3551 43.6078 36.3551 43.4028V34.9295C36.3551 34.7244 36.1889 34.5582 35.9839 34.5582Z" fill="#FF8C00"/>
<path d="M45.3582 34.5582H43.9806C43.7749 34.5582 43.6093 34.7238 43.6093 34.9295V39.9614L39.733 34.7257C39.7239 34.7129 39.713 34.7002 39.7039 34.6874C39.7039 34.6874 39.7039 34.6874 39.702 34.6856C39.6948 34.6783 39.6875 34.6692 39.6802 34.662C39.6784 34.6601 39.6748 34.6583 39.6729 34.6565C39.6657 34.651 39.6602 34.6456 39.6529 34.6401C39.6493 34.6383 39.6456 34.6347 39.642 34.6328C39.6365 34.6274 39.6293 34.6237 39.622 34.6201C39.6183 34.6183 39.6147 34.6146 39.6111 34.6128C39.6038 34.6092 39.5983 34.6055 39.591 34.6019C39.5874 34.6001 39.5838 34.5983 39.5801 34.5964C39.5728 34.5928 39.5656 34.5892 39.5583 34.5873C39.5546 34.5873 39.551 34.5837 39.5455 34.5837C39.5383 34.5819 39.531 34.5782 39.5237 34.5764C39.5201 34.5764 39.5146 34.5746 39.511 34.5728C39.5037 34.5728 39.4964 34.5691 39.4891 34.5673C39.4837 34.5673 39.4782 34.5673 39.4727 34.5655C39.4655 34.5655 39.46 34.5637 39.4527 34.5637C39.4454 34.5637 39.44 34.5637 39.4327 34.5637C39.4291 34.5637 39.4236 34.5637 39.42 34.5637H38.0514C37.8476 34.5637 37.6802 34.7293 37.6802 34.9349V43.4082C37.6802 43.6121 37.8458 43.7795 38.0514 43.7795H39.4291C39.6347 43.7795 39.8003 43.6139 39.8003 43.4082V38.3763L43.6821 43.6193C43.7094 43.6576 43.7422 43.6885 43.7786 43.7122C43.7786 43.7122 43.7822 43.714 43.7822 43.7158C43.7895 43.7213 43.7968 43.7249 43.8059 43.7304C43.8095 43.7322 43.8131 43.734 43.8168 43.7358C43.8222 43.7395 43.8295 43.7413 43.835 43.7449C43.8404 43.7486 43.8477 43.7504 43.8532 43.7522C43.8568 43.7522 43.8604 43.7558 43.8641 43.7558C43.8732 43.7595 43.8805 43.7613 43.8896 43.7631C43.8896 43.7631 43.8932 43.7631 43.895 43.7631C43.926 43.7704 43.9587 43.7759 43.9915 43.7759H45.36C45.5638 43.7759 45.7313 43.6102 45.7313 43.4046V34.9313C45.7313 34.7275 45.5657 34.56 45.36 34.56L45.3582 34.5582Z" fill="#FF8C00"/>
</svg>
